<?xml version="1.0" standalone="no"?>
<!DOCTYPE svg PUBLIC "-//W3C//DTD SVG 20010904//EN"
 "http://www.w3.org/TR/2001/REC-SVG-20010904/DTD/svg10.dtd">
<svg version="1.0" xmlns="http://www.w3.org/2000/svg"
 width="1112.000000pt" height="1112.000000pt" viewBox="0 0 1112.000000 1112.000000"
 preserveAspectRatio="xMidYMid meet">
<metadata>
Created by potrace 1.14, written by Peter Selinger 2001-2017
</metadata>
<g transform="translate(0.000000,1112.000000) scale(0.100000,-0.100000)"
fill="#000000" stroke="none">
<path d="M3583 8670 c-22 -9 -53 -92 -68 -185 -4 -22 -16 -74 -27 -115 -18
-68 -49 -195 -62 -260 -25 -120 -134 -553 -191 -754 -9 -32 -17 -84 -18 -115
l-2 -56 89 -22 c49 -13 137 -38 195 -57 58 -18 126 -38 151 -44 25 -6 56 -13
70 -17 27 -6 87 -15 135 -19 17 -1 36 2 43 7 6 5 12 7 12 3 0 -13 63 27 107
67 58 54 102 131 140 247 26 79 47 179 46 225 -1 44 -18 109 -42 158 l-28 58
43 20 c23 11 51 32 61 46 10 14 23 30 28 37 32 35 75 174 84 269 11 120 -27
260 -88 325 -45 46 -155 91 -291 118 -14 3 -41 9 -60 13 -19 5 -44 9 -56 9
-12 0 -49 10 -83 21 -74 24 -158 34 -188 21z m330 -386 c34 -6 82 -40 95 -67
17 -35 21 -123 8 -165 -6 -20 -21 -39 -38 -48 -25 -13 -39 -13 -103 0 -11 2
-42 7 -69 10 -27 4 -53 9 -57 11 -4 3 4 51 18 107 13 57 25 110 27 118 11 53
13 54 119 34z m-148 -563 c119 -30 133 -44 150 -134 11 -63 6 -102 -25 -168
-25 -54 -122 -76 -242 -55 -47 8 -48 9 -42 40 4 27 16 82 30 139 5 22 12 55
20 92 12 64 25 105 32 105 4 0 39 -9 77 -19z"/>
<path d="M7516 8662 c-2 -1 -15 -5 -30 -7 -87 -16 -112 -22 -135 -37 -15 -9
-20 -20 -17 -38 12 -61 17 -86 23 -105 4 -11 8 -24 9 -30 1 -5 10 -37 20 -70
10 -33 19 -62 19 -65 1 -3 5 -12 8 -20 6 -15 54 -193 62 -228 2 -9 13 -53 25
-97 11 -44 23 -91 26 -105 2 -14 10 -40 15 -58 20 -61 14 -57 -116 82 -69 74
-192 210 -215 239 -14 16 -36 42 -50 57 -14 15 -41 46 -60 70 -19 24 -40 48
-45 54 -6 6 -26 31 -45 56 -19 25 -39 50 -45 56 -5 7 -23 29 -40 49 -28 35
-32 36 -75 31 -43 -6 -65 -10 -110 -21 -11 -3 -30 -7 -41 -10 -26 -5 -48 -33
-49 -59 0 -11 9 -45 19 -75 16 -45 133 -498 146 -561 2 -8 8 -35 15 -60 7 -25
14 -53 16 -62 2 -10 6 -26 9 -35 3 -10 18 -67 34 -128 17 -60 31 -110 31 -110
1 0 3 -11 6 -24 2 -13 20 -87 40 -165 19 -77 37 -152 40 -165 9 -43 24 -61 50
-61 50 0 166 32 190 53 30 26 31 44 9 117 -9 30 -23 84 -31 120 -17 75 -17 72
-39 165 -9 39 -18 79 -21 90 -2 11 -17 74 -34 139 -16 66 -28 121 -26 123 2 2
91 -82 197 -187 107 -105 198 -194 202 -198 4 -4 59 -60 122 -125 76 -79 121
-118 137 -119 32 -2 96 12 127 28 14 8 31 14 38 14 7 0 21 9 32 21 19 21 20
64 0 101 -5 9 -9 27 -9 40 0 13 -5 29 -12 36 -7 7 -9 12 -6 12 4 0 -2 26 -13
58 -11 31 -22 68 -24 82 -3 14 -16 68 -31 120 -14 52 -30 112 -35 133 -31 132
-37 152 -39 152 -2 0 -8 24 -14 60 -3 17 -11 46 -16 65 -6 19 -33 118 -61 220
-62 229 -55 201 -81 290 -13 41 -27 81 -31 88 -7 10 -62 14 -71 4z"/>
<path d="M4905 8415 c-5 -2 -36 -11 -67 -21 -32 -9 -58 -21 -58 -27 0 -6 -3
-8 -6 -4 -8 7 -101 -58 -132 -92 -71 -79 -149 -242 -168 -351 -3 -14 -11 -56
-19 -95 -7 -38 -17 -97 -21 -130 -3 -33 -8 -63 -11 -68 -5 -9 -5 -175 2 -277
8 -138 77 -300 162 -381 80 -76 182 -114 319 -118 245 -6 445 215 539 599 46
185 49 326 10 568 -13 80 -77 232 -97 232 -4 0 -8 5 -8 11 0 27 -126 111 -200
133 -49 15 -219 29 -245 21z m166 -347 c43 -24 74 -83 95 -180 19 -85 6 -340
-22 -438 -4 -14 -8 -27 -9 -30 -1 -3 -5 -21 -9 -40 -5 -19 -12 -41 -16 -50 -4
-8 -16 -35 -26 -60 -10 -25 -26 -52 -34 -61 -40 -43 -108 -55 -183 -32 -127
37 -160 104 -161 328 -2 253 43 415 145 525 66 71 139 84 220 38z"/>
<path d="M6015 8382 c-2 -3 -46 -6 -97 -8 -208 -7 -281 -16 -304 -34 -15 -13
-12 -207 5 -295 6 -27 13 -72 16 -100 3 -27 8 -68 10 -90 5 -42 13 -139 20
-240 2 -33 6 -91 10 -130 3 -38 8 -97 10 -130 3 -33 7 -82 10 -110 3 -27 7
-99 10 -160 11 -210 14 -255 20 -265 4 -7 250 -7 250 0 0 1 9 3 19 5 10 2 22
9 26 15 8 13 6 127 -5 306 -4 67 -3 124 2 127 4 2 31 8 60 12 l52 7 34 -54
c18 -29 47 -78 63 -108 45 -86 154 -249 174 -260 9 -5 26 -8 36 -6 11 2 64 7
119 11 106 7 148 20 153 46 3 19 -123 268 -204 403 -30 49 -54 94 -54 99 0 6
10 21 21 33 27 29 65 94 75 129 43 147 46 204 18 390 -29 191 -114 334 -231
388 -42 19 -65 22 -181 22 -73 0 -135 -1 -137 -3z m151 -290 c31 -3 72 -49 85
-95 6 -23 12 -86 14 -141 4 -112 -17 -203 -56 -239 -25 -23 -94 -46 -166 -54
-50 -5 -53 -4 -54 18 -1 13 -2 35 -4 49 -2 14 -6 61 -10 104 -3 44 -8 94 -11
110 -2 17 -6 60 -9 96 -3 36 -8 84 -10 108 -2 23 -1 41 3 39 4 -2 30 -1 57 2
45 6 105 7 161 3z"/>
<path d="M740 6608 c-65 -7 -100 -29 -100 -63 0 -17 191 -390 258 -505 114
-194 109 -175 102 -355 -4 -98 14 -637 22 -657 14 -38 63 -49 178 -42 99 6
128 13 153 39 15 14 16 59 16 413 -1 265 3 411 10 439 19 68 67 171 240 507
109 211 102 227 -99 221 -186 -6 -177 -2 -236 -123 -19 -40 -52 -102 -73 -138
l-38 -65 -21 34 c-28 48 -122 245 -122 256 0 5 -12 17 -27 27 -31 19 -148 25
-263 12z m218 -87 c11 -32 183 -364 201 -387 l21 -26 36 73 c19 41 52 101 72
134 21 33 39 63 40 67 1 5 16 37 34 72 26 54 36 65 57 65 14 0 59 2 99 3 51 2
72 0 72 -9 0 -7 -18 -45 -39 -85 -67 -125 -189 -368 -185 -368 2 0 -8 -23 -22
-50 -55 -110 -57 -123 -57 -547 l0 -393 -26 -1 c-14 0 -54 -2 -88 -3 -34 -2
-67 0 -72 3 -6 4 -11 165 -14 403 l-5 397 -26 53 c-32 69 -69 132 -78 136 -5
2 -8 8 -8 13 0 5 -11 26 -23 47 -27 41 -207 395 -207 405 0 16 213 14 218 -2z"/>
<path d="M2222 6613 c-4 -1 -96 -4 -204 -5 -266 -4 -243 22 -247 -280 -3 -279
-9 -596 -15 -808 -13 -452 -12 -464 14 -504 39 -56 60 -58 515 -41 99 4 225 8
280 9 65 2 108 7 122 16 44 28 54 90 38 238 -6 60 -15 78 -53 107 -23 17 -43
20 -145 20 -65 0 -120 -3 -123 -6 -2 -4 -18 -4 -36 0 -18 4 -51 4 -73 1 -22
-3 -56 -3 -75 0 l-35 5 -2 163 c-2 122 0 162 10 163 90 8 257 22 301 24 76 4
90 25 89 127 -1 153 -3 166 -21 188 -18 22 -23 23 -200 21 l-182 -1 0 64 c0
36 5 68 10 71 6 4 97 8 203 11 246 5 265 8 296 39 25 24 26 29 24 143 -2 165
-10 197 -55 220 -19 10 -407 23 -436 15z m405 -138 c2 -27 4 -75 6 -105 6 -82
1 -87 -90 -90 -43 -1 -136 -4 -208 -6 -225 -6 -233 -9 -236 -94 0 -25 -2 -74
-3 -110 -4 -102 -1 -103 222 -101 l182 2 1 -38 c1 -53 1 -116 0 -128 -1 -6
-18 -11 -38 -11 -21 0 -76 -4 -123 -8 -102 -9 -157 -14 -187 -15 -51 -2 -54
-18 -52 -235 1 -110 4 -211 6 -223 3 -12 15 -26 26 -29 30 -11 178 -11 200 -1
10 4 17 4 17 -2 0 -6 6 -8 13 -5 7 2 68 6 136 8 115 2 123 1 134 -18 14 -26
15 -35 18 -111 1 -34 -2 -68 -7 -76 -7 -10 -33 -14 -104 -15 -52 -1 -187 -5
-300 -9 -273 -10 -372 -10 -393 -2 -17 6 -18 24 -12 289 12 607 14 711 16 944
l3 241 386 -1 385 -1 2 -50z"/>
<path d="M3275 6605 c-27 -7 -66 -20 -86 -28 -65 -29 -189 -132 -189 -158 0
-5 -4 -9 -9 -9 -5 0 -13 -9 -16 -20 -3 -11 -12 -26 -19 -32 -18 -19 -55 -116
-65 -171 -5 -26 -7 -80 -5 -120 3 -73 39 -207 55 -207 5 0 9 -6 9 -14 0 -14
98 -116 111 -116 3 0 19 -12 35 -26 16 -14 72 -46 124 -71 110 -54 197 -107
223 -136 35 -40 17 -87 -48 -123 -50 -27 -170 15 -228 81 -69 79 -76 85 -105
85 -30 0 -93 -45 -189 -137 -38 -36 -44 -46 -41 -75 10 -86 112 -212 229 -282
97 -58 150 -71 284 -71 119 0 122 0 196 37 72 35 94 51 149 103 59 55 134 187
143 250 1 11 5 25 8 30 6 11 3 176 -4 210 -29 140 -131 250 -327 349 -140 71
-215 119 -229 145 -17 32 -13 60 14 87 23 23 32 25 96 23 66 -2 75 -5 123 -41
62 -47 87 -54 129 -37 37 15 39 17 92 84 22 28 43 52 46 55 14 12 29 51 29 77
0 65 -144 199 -264 245 -63 24 -200 31 -271 13z m231 -85 c58 -18 155 -86 192
-135 l33 -44 -40 -53 c-68 -90 -83 -96 -126 -55 -40 39 -101 58 -185 58 -83 0
-104 -8 -149 -52 -30 -31 -33 -39 -39 -95 -4 -47 16 -94 56 -130 48 -42 60
-49 212 -126 63 -31 129 -69 145 -83 17 -15 44 -39 62 -54 61 -52 94 -137 98
-249 6 -173 -93 -334 -255 -415 -58 -29 -73 -32 -155 -32 -102 0 -160 8 -181
26 -8 6 -14 9 -14 5 0 -12 -115 66 -151 103 -19 20 -50 58 -68 86 l-33 49 39
36 c55 50 102 90 106 90 2 0 30 -26 63 -59 150 -145 366 -138 418 14 37 106
-34 184 -264 293 -107 51 -217 135 -253 194 -76 123 -66 309 23 448 56 87 155
160 248 184 57 15 164 13 218 -4z"/>
<path d="M5206 6612 c-2 -1 -58 -2 -125 -3 -68 0 -134 -4 -147 -9 -30 -12 -67
-70 -54 -85 5 -6 5 -17 0 -25 -5 -8 -5 -21 -2 -29 9 -20 9 -42 -1 -58 -4 -6
-3 -14 1 -17 5 -3 8 -18 5 -33 -6 -44 -5 -122 2 -133 3 -6 3 -10 -2 -10 -4 0
-9 -93 -9 -208 -2 -178 -10 -537 -19 -832 -3 -95 8 -146 38 -173 44 -38 55
-38 790 -13 76 3 102 8 118 22 33 29 45 66 39 117 -3 26 -3 53 1 59 5 7 4 17
0 23 -5 5 -8 24 -8 40 1 35 -26 86 -57 105 -23 16 -259 22 -308 9 -15 -4 -30
-4 -32 0 -3 4 -27 5 -53 2 -96 -12 -90 -22 -92 165 -1 90 2 165 6 165 5 1 22
2 38 4 17 1 71 5 120 10 50 4 114 9 143 10 76 3 93 23 94 106 2 246 17 230
-222 232 l-185 2 3 65 c2 36 5 66 6 68 2 1 88 4 192 7 104 3 207 7 229 8 90 7
114 46 109 177 -7 172 -15 200 -64 220 -27 11 -25 11 -190 11 -63 1 -170 2
-238 2 -68 1 -125 1 -126 -1z m528 -100 c8 -28 11 -211 3 -218 -9 -10 -51 -12
-267 -19 -102 -2 -196 -7 -210 -10 -29 -6 -50 -30 -51 -59 -6 -160 -5 -193 8
-213 13 -23 17 -23 202 -23 l190 0 3 -85 c2 -47 1 -86 -2 -86 -3 -1 -23 -2
-45 -3 -22 -2 -76 -6 -120 -10 -44 -4 -105 -9 -135 -12 -71 -6 -87 -11 -95
-32 -8 -21 -7 -414 1 -436 3 -8 16 -18 27 -22 21 -7 153 -7 362 -1 93 3 144
-6 146 -26 0 -7 2 -38 4 -69 2 -32 6 -62 9 -67 4 -5 2 -12 -3 -16 -6 -3 -8
-12 -4 -20 6 -17 17 -16 -162 -20 -77 -2 -140 -4 -140 -5 0 -2 -290 -11 -403
-13 -56 0 -96 3 -103 10 -14 14 -14 38 -5 413 11 396 15 617 17 850 1 107 3
198 5 201 2 3 174 6 383 7 347 0 381 -1 385 -16z"/>
<path d="M7237 6608 c-6 -4 -14 -5 -18 -2 -4 2 -20 -1 -37 -7 -56 -19 -57 -22
-65 -767 -1 -116 0 -212 3 -212 3 0 5 -64 6 -143 1 -173 12 -411 21 -435 19
-50 78 -58 383 -56 190 2 241 10 325 52 178 89 294 250 340 472 31 149 34 174
30 332 -1 91 -6 171 -9 177 -4 6 -9 30 -11 53 -17 162 -27 193 -98 298 -48 70
-57 78 -144 140 -152 109 -128 104 -441 104 -151 1 -279 -2 -285 -6z m539 -77
c21 -2 189 -116 217 -148 79 -89 113 -162 127 -272 6 -45 14 -99 16 -120 9
-60 9 -302 1 -356 -14 -90 -47 -209 -74 -270 -64 -141 -195 -255 -330 -286
-66 -15 -498 -15 -507 0 -10 16 -26 473 -27 751 0 271 10 683 18 691 10 10
449 18 559 10z"/>
<path d="M7490 6252 c-8 -3 -20 -11 -25 -19 -12 -16 -13 -845 -1 -880 12 -36
58 -40 181 -18 130 24 218 128 242 290 14 87 6 231 -16 315 -42 158 -52 184
-94 228 -66 70 -102 86 -192 88 -44 1 -87 -1 -95 -4z m191 -109 c24 -17 50
-41 56 -54 26 -54 58 -164 69 -239 8 -58 5 -217 -6 -245 -6 -16 -11 -32 -11
-35 0 -3 -8 -24 -18 -46 -16 -36 -77 -98 -98 -100 -5 0 -24 -4 -43 -8 -62 -13
-90 -14 -91 -2 -2 40 -3 758 -1 761 2 1 24 2 51 1 34 -2 60 -11 92 -33z"/>
<path d="M9526 6608 c-81 -8 -110 -31 -96 -77 7 -26 204 -416 220 -436 4 -5
19 -31 33 -56 41 -75 52 -94 57 -99 3 -3 14 -21 25 -40 21 -37 20 -23 28 -665
3 -259 1 -257 190 -249 106 4 151 20 163 56 4 13 8 205 8 428 1 392 2 406 22
450 12 25 34 74 50 110 16 36 46 99 68 140 117 227 185 367 183 380 -2 8 -8
24 -14 35 -11 18 -21 20 -135 19 -68 -1 -139 -4 -158 -7 -39 -7 -68 -37 -96
-101 -19 -44 -114 -216 -119 -216 -2 0 -23 39 -47 88 -23 48 -46 89 -50 90 -5
2 -8 12 -8 22 0 10 -4 21 -9 25 -5 3 -12 18 -16 34 -3 16 -17 39 -30 51 -22
20 -36 23 -112 24 -49 1 -119 -2 -157 -6z m209 -80 c2 -2 36 -69 75 -148 103
-209 160 -302 160 -261 0 6 10 27 22 48 12 20 23 42 24 48 1 6 16 34 33 61 17
28 53 93 79 144 53 103 42 97 169 103 70 3 94 -6 73 -29 -10 -12 -207 -402
-242 -479 -56 -128 -57 -138 -57 -553 1 -211 -1 -385 -3 -387 -3 -3 -47 -6
-99 -7 l-94 -3 -2 165 c0 91 -2 266 -3 390 -2 124 -6 241 -11 261 -8 30 -91
182 -117 214 -5 6 -11 15 -13 20 -2 6 -21 43 -42 82 -20 40 -37 76 -36 79 0 4
-3 10 -8 13 -8 6 -113 209 -116 226 -3 16 193 28 208 13z"/>
<path d="M3955 6600 c-12 -4 -27 -15 -34 -24 -19 -23 -31 -235 -16 -288 12
-47 28 -52 151 -50 l114 1 1 -32 c2 -130 -7 -396 -14 -404 -4 -3 -2 -14 4 -24
5 -11 6 -19 2 -19 -4 0 -8 -110 -8 -245 0 -135 3 -245 7 -245 4 0 3 -11 -2
-24 -5 -15 -5 -27 2 -34 6 -6 6 -12 -1 -16 -7 -5 -7 -15 -1 -31 5 -14 6 -25 2
-25 -4 0 -7 -15 -6 -32 5 -82 21 -113 66 -125 47 -13 214 -8 241 6 46 25 46
23 53 481 2 129 6 296 8 370 3 74 6 193 7 263 1 70 6 130 11 133 6 4 57 7 114
8 144 2 143 1 144 255 1 103 10 100 -269 100 -130 0 -308 2 -396 4 -88 2 -169
1 -180 -3z m537 -83 l227 -1 -2 -93 c-1 -51 -4 -93 -7 -94 -3 0 -50 -2 -105
-4 -120 -3 -143 -9 -149 -38 -5 -23 -15 -374 -21 -757 -7 -455 -7 -460 -24
-470 -9 -4 -50 -7 -91 -6 l-75 2 -2 124 c-6 322 -5 519 2 680 7 156 9 304 6
397 -1 37 -27 66 -52 60 -11 -3 -19 -2 -19 1 0 4 -28 6 -62 5 -35 -1 -63 -2
-63 -3 0 -1 -15 -2 -33 -3 -23 -2 -34 3 -38 16 -8 26 -1 181 9 188 4 3 67 4
140 1 73 -2 234 -5 359 -5z"/>
<path d="M6034 6602 c-43 -7 -73 -25 -82 -50 -15 -44 -18 -216 -6 -347 6 -74
7 -1007 1 -1110 -2 -33 0 -69 6 -80 22 -42 32 -45 242 -49 86 -2 91 -1 115 25
29 30 29 30 33 279 1 76 6 138 12 142 6 4 20 8 33 8 19 0 31 -17 73 -107 28
-60 62 -130 75 -158 40 -80 93 -164 112 -174 28 -15 293 -10 324 6 31 15 48
41 48 72 0 29 -106 282 -178 427 l-36 72 25 30 c13 17 32 41 42 53 21 28 72
160 82 209 8 42 13 232 7 244 -3 5 -6 29 -8 55 -2 25 -5 55 -7 66 -47 208
-131 319 -273 360 -35 10 -115 18 -232 21 -227 8 -383 10 -408 6z m40 -84 c5
9 47 8 63 -1 7 -4 14 -3 18 3 4 6 10 8 15 5 5 -3 103 -7 219 -10 241 -5 296
-16 360 -71 68 -60 119 -194 126 -333 2 -40 6 -75 8 -77 12 -13 -14 -221 -31
-249 -4 -5 -7 -12 -7 -15 -2 -21 -56 -108 -88 -140 -21 -22 -39 -48 -39 -57
-1 -10 28 -79 64 -153 57 -117 76 -159 83 -180 4 -12 20 -50 46 -110 15 -36
23 -67 18 -70 -5 -3 -61 -6 -126 -5 l-117 0 -29 50 c-35 60 -78 145 -142 282
-44 94 -51 104 -82 112 -19 6 -44 7 -56 3 -12 -4 -33 -7 -47 -7 -14 0 -34 -7
-44 -17 -17 -15 -19 -37 -23 -195 -3 -98 -5 -189 -6 -203 -1 -33 -7 -36 -69
-34 -122 4 -158 8 -159 18 -1 6 0 52 1 101 6 204 3 958 -5 1055 -4 58 -6 121
-5 140 1 19 3 62 5 95 3 79 2 77 24 65 11 -5 22 -7 25 -2z"/>
<path d="M6285 6294 c-18 -18 -17 -13 -16 -134 2 -455 3 -459 50 -461 74 -3
137 5 203 27 45 15 50 20 84 89 39 79 46 117 47 240 0 142 -20 196 -88 230
-53 27 -255 33 -280 9z m262 -98 c15 -18 24 -41 25 -69 3 -84 -3 -173 -14
-212 -6 -22 -12 -42 -13 -45 -16 -56 -53 -78 -141 -86 l-50 -4 -2 226 -2 226
87 -5 c79 -4 89 -7 110 -31z"/>
<path d="M8869 6596 c-2 -2 -35 -7 -74 -11 -38 -4 -77 -9 -85 -10 -8 -2 -20
-4 -27 -4 -12 -1 -53 -53 -57 -74 -2 -7 -8 -32 -15 -57 -7 -25 -15 -52 -16
-60 -9 -40 -57 -218 -65 -240 -10 -30 -120 -405 -125 -428 -2 -10 -8 -29 -13
-43 -6 -14 -23 -84 -37 -155 -15 -71 -43 -178 -62 -239 -19 -60 -36 -121 -38
-135 -2 -14 -8 -37 -14 -51 -14 -39 14 -91 59 -106 40 -13 273 -8 301 7 9 5
19 7 22 4 5 -5 60 104 72 144 5 19 13 23 43 22 20 -1 81 1 135 5 68 5 97 4 98
-4 1 -6 2 -14 3 -18 25 -95 56 -150 96 -170 23 -12 121 -11 243 2 42 4 96 33
98 52 5 48 4 60 -2 74 -5 9 -10 27 -13 40 -3 13 -7 33 -10 44 -23 99 -28 123
-33 145 -3 14 -6 32 -7 40 -5 36 -20 100 -38 165 -10 39 -21 79 -23 90 -5 26
-41 161 -54 203 -5 18 -10 36 -10 40 -1 4 -4 16 -6 27 -15 54 -28 102 -33 115
-3 8 -6 20 -7 25 -2 6 -11 37 -21 70 -10 33 -19 65 -21 70 -1 6 -11 40 -22 78
-11 37 -22 80 -25 95 -12 66 -49 189 -64 214 -9 16 -23 28 -32 29 -8 1 -38 3
-66 5 -28 2 -53 2 -55 0z m88 -90 c6 -6 63 -215 61 -225 -1 -4 1 -13 4 -21 15
-43 80 -258 84 -277 2 -12 9 -34 14 -48 5 -14 7 -25 4 -25 -3 0 -2 -6 3 -12 4
-7 8 -17 10 -23 2 -10 10 -41 17 -72 3 -10 9 -33 15 -50 5 -18 8 -33 5 -33 -3
0 0 -10 7 -21 6 -12 12 -31 14 -43 3 -19 7 -37 20 -83 18 -69 72 -311 80 -360
3 -17 13 -58 24 -92 10 -34 16 -61 12 -62 -3 0 -28 -2 -56 -4 -27 -2 -75 -6
-106 -9 -30 -2 -60 -1 -65 2 -15 11 -42 73 -49 117 -4 22 -14 51 -22 63 l-15
24 -156 -7 c-86 -4 -166 -6 -177 -6 -39 2 -63 -20 -70 -63 -3 -22 -14 -57 -23
-76 -14 -29 -23 -35 -52 -37 -137 -7 -187 -9 -202 -5 -19 5 -19 16 1 80 5 18
10 33 10 35 0 1 2 9 4 17 35 109 59 199 72 265 9 44 18 87 20 95 1 8 8 35 15
60 7 25 14 52 16 60 2 8 22 76 44 150 23 74 43 142 45 150 2 8 18 62 35 120
17 58 42 150 56 205 30 122 53 195 62 196 4 0 16 2 27 5 11 2 40 7 65 10 25 3
46 7 47 8 6 5 94 -2 100 -8z"/>
<path d="M8801 6000 c-9 -5 -25 -59 -35 -110 -4 -27 -34 -171 -42 -205 -3 -11
-7 -36 -10 -55 -2 -19 -7 -43 -10 -53 -3 -10 2 -30 11 -44 17 -26 18 -26 124
-20 58 3 114 8 123 12 23 9 32 41 20 73 -6 15 -18 59 -27 97 -18 80 -84 284
-97 302 -9 12 -41 14 -57 3z m49 -217 c0 -9 4 -30 9 -47 6 -17 16 -56 24 -86
l14 -55 -54 -3 c-60 -3 -55 -12 -38 78 3 19 7 42 9 50 13 69 19 89 27 84 5 -3
9 -12 9 -21z"/>
<path d="M5287 4694 c-1 -1 -38 -4 -82 -6 -45 -3 -90 -11 -102 -19 -12 -7 -32
-36 -44 -63 -13 -28 -28 -58 -35 -66 -6 -8 -30 -51 -54 -95 -23 -44 -76 -128
-116 -187 -41 -58 -74 -111 -74 -117 0 -6 -4 -11 -10 -11 -5 0 -11 15 -11 33
-4 70 -21 247 -34 347 -4 25 -9 63 -11 84 -3 22 -7 43 -10 48 -3 4 -33 5 -67
3 -34 -3 -88 -7 -121 -9 -32 -2 -63 -9 -68 -14 -12 -12 -13 -53 -4 -152 4 -41
10 -100 12 -130 2 -30 6 -75 9 -100 5 -41 8 -101 20 -305 6 -124 16 -279 21
-330 2 -27 6 -99 9 -160 2 -60 5 -110 6 -110 1 0 2 -22 4 -50 5 -101 17 -190
27 -202 13 -16 214 -11 246 6 19 10 28 39 23 73 -2 21 -12 235 -16 371 l-4
158 28 46 c26 41 29 44 36 24 3 -11 11 -21 16 -21 5 0 9 -5 9 -10 0 -6 11 -23
25 -38 14 -15 28 -36 31 -47 7 -21 125 -196 153 -226 9 -10 45 -66 81 -124 36
-59 76 -120 89 -136 l23 -30 112 5 c134 5 174 13 186 37 8 13 4 25 -15 47 -14
17 -25 34 -25 39 0 6 -9 18 -20 28 -11 10 -20 23 -20 28 0 6 -23 44 -52 86
-45 67 -64 98 -112 186 -6 11 -16 24 -23 30 -16 15 -283 415 -283 425 0 5 23
44 51 87 44 69 109 175 172 283 52 89 128 253 124 265 -4 10 -91 26 -100 19z"/>
<path d="M5828 4676 c-12 -9 -19 -33 -23 -82 -3 -38 -8 -89 -11 -114 -8 -66
-12 -108 -19 -175 -3 -33 -8 -80 -10 -105 -3 -25 -7 -65 -10 -90 -4 -51 -13
-138 -20 -190 -2 -19 -7 -60 -10 -90 -3 -30 -8 -73 -11 -95 -7 -51 -10 -78
-29 -260 -2 -16 -7 -52 -11 -80 -4 -27 -8 -68 -9 -90 -2 -22 -4 -42 -5 -45 -1
-3 -3 -21 -4 -40 -2 -45 18 -77 52 -85 15 -3 38 -8 52 -11 14 -3 79 -7 145 -9
66 -2 120 -5 120 -5 0 -2 115 -9 225 -14 52 -2 134 -7 183 -11 118 -9 131 5
129 149 -1 102 0 100 -21 123 -21 22 -68 29 -236 38 -44 2 -116 7 -160 11 -44
3 -87 6 -96 6 -18 -1 -18 11 -6 148 3 30 9 100 12 155 4 55 11 102 16 105 4 3
93 4 198 3 129 -2 192 1 197 8 4 6 8 43 11 83 2 39 5 88 7 109 1 21 0 40 -3
42 -8 4 -105 17 -166 21 -237 15 -241 16 -230 34 3 5 8 38 11 72 6 74 11 104
18 117 9 13 314 0 338 -15 4 -3 8 0 8 6 0 6 5 8 11 4 6 -3 40 -7 75 -9 80 -3
104 15 105 78 0 23 3 81 5 128 6 110 -2 118 -112 124 -44 3 -89 7 -101 9 -22
5 -96 12 -209 21 -33 2 -87 7 -120 9 -32 3 -99 8 -148 11 -48 4 -96 8 -105 10
-9 2 -24 -3 -33 -9z"/>
<path d="M7003 4542 c-21 -13 -76 -188 -87 -277 -10 -72 -25 -140 -78 -350
-22 -88 -41 -167 -43 -175 -2 -8 -13 -53 -25 -100 -12 -47 -24 -92 -25 -100
-2 -8 -4 -15 -5 -15 -1 0 -3 -9 -4 -20 -3 -21 -55 -211 -82 -302 -9 -29 -17
-58 -18 -65 -2 -7 -6 -26 -11 -41 -7 -27 4 -51 23 -53 4 0 34 -8 67 -19 33
-10 62 -19 65 -20 3 -1 25 -7 49 -14 66 -19 86 -10 101 46 7 27 16 53 19 58 3
6 6 13 7 18 1 4 2 8 4 10 1 1 3 11 5 22 2 11 17 71 34 134 17 62 31 115 31
117 0 6 114 -8 122 -15 4 -3 9 -17 12 -31 3 -14 10 -43 15 -65 5 -22 12 -56
15 -75 3 -19 8 -51 11 -70 9 -52 56 -225 65 -240 7 -11 75 -34 140 -46 14 -3
39 -9 56 -15 39 -12 97 -15 113 -5 12 8 10 101 -3 136 -3 8 -7 35 -10 60 -2
25 -9 73 -15 108 -7 35 -14 75 -16 90 -5 34 -13 67 -15 67 -1 0 -4 16 -7 35
-2 19 -9 42 -13 51 -7 12 4 25 50 58 52 36 140 134 140 155 0 4 7 14 15 22 17
17 60 150 70 214 4 25 8 47 11 51 3 6 16 120 16 144 -1 116 -38 233 -90 288
-33 35 -122 87 -159 93 -16 3 -49 11 -74 20 -25 8 -54 16 -65 19 -10 2 -44 11
-74 20 -51 15 -241 65 -300 78 -14 4 -31 3 -37 -1z m348 -378 c87 -24 127 -51
139 -94 10 -38 4 -123 -12 -152 -5 -10 -6 -18 -3 -18 11 0 -47 -136 -72 -169
-38 -50 -48 -60 -75 -70 -24 -9 -115 -7 -158 4 -14 3 -32 7 -40 9 -19 4 -17
19 9 126 31 125 31 122 37 155 3 17 11 54 19 83 7 28 11 52 8 52 -3 0 0 6 6
14 6 8 11 18 10 22 -1 5 0 12 1 17 4 11 7 26 9 37 1 12 41 7 122 -16z"/>
<path d="M3720 4460 c-31 -7 -67 -20 -135 -50 -11 -4 -32 -11 -46 -14 -14 -3
-30 -16 -36 -29 -6 -13 -12 -93 -13 -178 -2 -187 -6 -321 -15 -454 -3 -55 -8
-260 -11 -455 -2 -195 -5 -366 -7 -380 -3 -25 11 -69 22 -71 3 0 15 -2 25 -4
24 -5 257 62 273 78 14 14 26 76 25 135 l0 42 57 16 c31 8 72 21 91 27 19 6
37 12 40 12 3 1 29 9 59 18 72 22 80 22 91 -8 10 -27 58 -102 78 -123 28 -30
62 -28 170 8 97 32 142 58 142 82 0 4 -11 26 -25 48 -13 21 -67 126 -119 232
-97 197 -148 295 -163 313 -5 6 -26 44 -47 85 -47 90 -101 185 -171 300 -28
47 -79 138 -114 204 -82 156 -84 160 -96 168 -12 9 -27 8 -75 -2z m93 -646
c15 -25 27 -49 27 -55 0 -5 3 -9 8 -9 4 0 19 -21 32 -47 14 -26 44 -80 67
-120 48 -83 48 -83 -47 -113 -112 -36 -110 -36 -111 23 -1 29 -3 72 -5 97 -7
106 -10 270 -5 270 3 0 18 -21 34 -46z"/>
<path d="M8201 4220 c-10 -6 -12 -25 -7 -76 3 -38 8 -105 11 -149 11 -184 15
-242 20 -270 2 -16 7 -52 10 -80 3 -27 8 -68 11 -90 10 -74 10 -115 1 -115 -4
0 -6 -4 -3 -8 3 -5 -9 -38 -25 -73 -17 -35 -64 -149 -106 -254 -41 -104 -83
-207 -93 -230 -87 -199 -88 -205 -32 -226 15 -6 40 -16 57 -24 55 -25 118 -42
136 -38 10 3 24 19 33 37 20 42 78 177 81 186 0 3 11 27 23 54 12 27 22 50 22
52 0 2 11 27 24 56 54 120 84 197 79 202 -4 3 -1 6 5 6 7 0 12 6 12 13 0 6 14
41 30 77 24 50 53 87 129 161 53 52 131 122 172 155 41 32 76 61 79 64 3 3 30
25 60 50 30 25 57 48 58 53 2 4 10 7 18 7 8 0 14 7 14 15 0 8 3 15 8 15 4 0
20 12 35 26 36 33 26 46 -61 75 -37 12 -87 31 -112 41 -53 23 -74 19 -118 -21
-18 -17 -72 -60 -120 -97 -48 -37 -99 -79 -114 -93 -42 -38 -38 -55 -52 234
-4 72 -9 139 -11 150 -5 24 -42 44 -171 90 -53 20 -96 30 -103 25z"/>
<path d="M2588 4125 c-27 -7 -48 -10 -48 -7 0 3 -5 1 -12 -6 -7 -7 -19 -12
-27 -12 -8 0 -69 -27 -135 -59 -67 -32 -155 -73 -196 -90 -41 -17 -87 -41
-101 -53 -28 -25 -43 -64 -28 -74 5 -3 9 -11 9 -19 0 -8 23 -62 51 -122 28
-59 52 -112 54 -118 4 -19 22 -60 100 -230 69 -148 78 -170 80 -175 0 -3 10
-25 22 -50 43 -94 171 -398 194 -460 24 -69 63 -146 84 -169 9 -9 22 -11 42
-6 15 5 31 8 36 7 4 -1 7 2 7 8 0 5 4 10 9 10 5 0 30 10 57 22 27 12 51 23 54
23 82 21 293 108 370 154 66 39 107 84 116 124 3 12 8 36 12 52 10 48 6 173
-6 188 -7 8 -10 16 -7 19 10 9 -56 182 -91 240 -43 70 -120 141 -178 163 l-44
17 23 47 c20 38 23 58 20 112 -2 36 -10 82 -19 102 -8 20 -12 37 -8 37 3 0 1
5 -6 12 -7 7 -12 18 -12 24 0 22 -67 127 -107 169 -103 110 -206 148 -315 120z
m99 -377 c39 -35 83 -109 83 -137 0 -15 -8 -36 -18 -47 -16 -21 -168 -104
-187 -104 -9 0 -115 230 -115 249 0 4 30 22 67 39 79 37 131 37 170 0z m254
-513 c65 -49 116 -150 105 -208 -8 -43 -77 -116 -141 -150 -54 -28 -63 -26
-82 13 -6 14 -39 83 -72 153 -34 71 -61 133 -61 138 0 8 94 56 140 71 29 10
88 1 111 -17z"/>
</g>
</svg>
