
<svg xmlns="http://www.w3.org/2000/svg" xmlns:xlink="http://www.w3.org/1999/xlink" width="1112" zoomAndPan="magnify" viewBox="0 0 834 643.499986" height="858" preserveAspectRatio="xMidYMid meet" version="1.0"><defs><g/></defs><g fill="#ff5758" fill-opacity="1"><g transform="translate(232.420119, 196.746044)"><g><path d="M 42.375 12.699219 C 43.945312 13.097656 46.492188 13.585938 48.886719 14.03125 C 50.808594 14.355469 52.769531 14.527344 54.535156 14.8125 C 58.066406 15.382812 61.210938 14.851562 64.207031 12.945312 C 70.554688 9.054688 74.828125 3.464844 77.261719 -3.433594 C 78.179688 -5.707031 79.097656 -7.976562 79.855469 -10.289062 C 81.65625 -16.011719 82.988281 -21.855469 82.550781 -27.984375 C 82.261719 -32.070312 81.066406 -35.886719 79.125 -39.394531 C 78.8125 -40.140625 78.421875 -40.574219 77.917969 -41.207031 C 77.175781 -42.230469 77.019531 -42.273438 78.160156 -42.816406 C 78.359375 -42.933594 78.753906 -43.164062 79.105469 -43.242188 C 81.9375 -43.851562 84.070312 -45.648438 85.96875 -47.835938 C 88.027344 -50.652344 89.808594 -53.703125 90.851562 -57.113281 C 91.492188 -58.957031 91.972656 -60.835938 92.652344 -62.835938 C 93.976562 -67.34375 94.199219 -72.132812 93.914062 -76.886719 C 93.460938 -80.34375 92.855469 -83.84375 91.382812 -87.230469 C 90.492188 -89.628906 89.605469 -92.03125 87.613281 -94.046875 C 86.050781 -95.78125 84.058594 -97.128906 81.824219 -98.203125 C 80.769531 -98.640625 79.710938 -99.078125 78.808594 -99.476562 C 75.875 -101.066406 72.539062 -101.753906 69.402344 -102.554688 C 66.109375 -103.398438 62.933594 -104.046875 59.597656 -104.734375 C 58.617188 -104.820312 57.792969 -104.863281 57.007812 -105.0625 C 56.027344 -105.148438 55.203125 -105.191406 54.417969 -105.394531 C 52.105469 -106.152344 49.597656 -106.796875 47.285156 -107.554688 C 46.34375 -107.796875 45.441406 -108.195312 44.5 -108.4375 C 41.792969 -108.960938 39.203125 -109.292969 36.449219 -108.328125 C 35.191406 -107.980469 34.480469 -107.160156 34.160156 -105.90625 C 34.15625 -105.238281 34.035156 -104.765625 33.714844 -104.179688 C 32.316406 -100.027344 31.390625 -95.75 30.65625 -91.59375 C 30.488281 -89.628906 30.046875 -87.90625 29.40625 -86.0625 C 28.566406 -83.4375 27.6875 -80.652344 27.121094 -77.789062 C 25.507812 -70.847656 24.015625 -63.710938 22.402344 -56.769531 C 19.949219 -46.535156 17.492188 -36.300781 14.878906 -26.105469 C 13.390625 -20.300781 11.75 -14.539062 9.90625 -8.660156 C 9.027344 -5.875 8.734375 -2.777344 8.167969 0.0859375 C 7.882812 1.851562 8.699219 3.230469 10.582031 3.714844 C 12.777344 4.277344 14.933594 4.996094 17.207031 5.246094 C 20.269531 5.695312 23.167969 6.773438 26.066406 7.851562 C 31.125 9.648438 36.300781 10.972656 42.375 12.699219 Z M 41.363281 -29.011719 C 41.890625 -31.71875 42.613281 -34.542969 43.140625 -37.25 C 43.460938 -38.503906 43.460938 -38.503906 44.757812 -38.339844 C 47.421875 -37.65625 50.285156 -37.089844 53.109375 -36.367188 C 54.835938 -35.921875 56.480469 -35.167969 58.085938 -34.253906 C 59.648438 -33.183594 60.425781 -31.648438 60.847656 -30.035156 C 62.273438 -25.160156 61.890625 -20.410156 60.214844 -15.824219 C 59.375 -13.199219 57.242188 -11.40625 54.332031 -10.480469 C 50.121094 -9.050781 46 -9.273438 41.882812 -10.160156 C 40.742188 -10.285156 39.644531 -10.566406 38.390625 -10.886719 C 37.648438 -11.246094 37.488281 -11.285156 37.730469 -12.226562 C 38.980469 -17.757812 40.074219 -23.324219 41.324219 -28.855469 C 41.324219 -28.855469 41.324219 -28.855469 41.363281 -29.011719 Z M 50.71875 -70.738281 C 51.328125 -73.761719 52.050781 -76.582031 52.8125 -79.5625 C 52.972656 -80.191406 53.054688 -80.503906 53.878906 -80.460938 C 56.113281 -80.054688 58.390625 -79.804688 60.785156 -79.359375 C 62.863281 -78.992188 64.863281 -78.316406 66.621094 -76.695312 C 67.714844 -75.746094 68.570312 -74.523438 68.875 -73.105469 C 69.832031 -69.019531 69.808594 -65.011719 68.804688 -61.089844 C 68.605469 -60.308594 68.246094 -59.5625 67.65625 -59.214844 C 66 -57.964844 64.109375 -57.113281 62.03125 -57.480469 C 59.636719 -57.925781 57.085938 -58.410156 54.695312 -58.855469 C 53.085938 -59.101562 51.476562 -59.347656 49.828125 -59.4375 C 48.21875 -59.679688 48.261719 -59.835938 48.503906 -61.445312 C 49.230469 -64.269531 49.992188 -67.25 50.558594 -70.113281 C 50.597656 -70.269531 50.640625 -70.425781 50.71875 -70.738281 Z M 50.71875 -70.738281 "/></g></g></g><g fill="#ff5758" fill-opacity="1"><g transform="translate(320.449321, 218.961943)"><g><path d="M 90.347656 -52.398438 C 91.042969 -58.351562 90.753906 -64.226562 90.144531 -70.132812 C 89.816406 -73.738281 89.328125 -77.359375 88.835938 -80.980469 C 88.226562 -86.886719 85.933594 -92.128906 82.800781 -97.125 C 81.375 -99.363281 79.789062 -101.621094 77.515625 -103.449219 C 75.078125 -105.292969 72.292969 -106.839844 69.519531 -108.550781 C 69.519531 -108.550781 69.355469 -108.566406 69.371094 -108.726562 C 67.316406 -109.398438 65.425781 -110.054688 63.359375 -110.566406 C 60.160156 -111.175781 56.921875 -111.304688 53.695312 -111.589844 C 51.425781 -111.632812 48.992188 -111.6875 46.660156 -111.082031 C 43.175781 -110.253906 39.671875 -109.269531 36.566406 -107.269531 C 34.152344 -105.699219 31.425781 -104.316406 29.289062 -102.230469 C 26.789062 -99.691406 24.753906 -96.945312 22.707031 -94.039062 C 21.375 -91.882812 20.515625 -89.523438 19.507812 -87.335938 C 17.054688 -81.703125 15.40625 -76 14.226562 -70.089844 C 13.675781 -67.539062 13.28125 -64.972656 12.90625 -62.566406 C 12.441406 -59.195312 11.816406 -55.839844 11.351562 -52.464844 C 10.859375 -48.769531 10.6875 -45.046875 11.164062 -41.265625 C 11.105469 -40.621094 11.210938 -39.960938 11.152344 -39.316406 C 11.257812 -36.867188 11.21875 -34.597656 11.164062 -32.164062 C 11.34375 -28.734375 12.039062 -25.582031 12.894531 -22.417969 C 14.457031 -16.265625 17.191406 -10.492188 20.96875 -5.441406 C 21.554688 -4.738281 22.304688 -4.023438 22.890625 -3.320312 C 23.65625 -2.761719 24.242188 -2.0625 24.84375 -1.519531 C 26.941406 0.457031 29.246094 1.960938 31.769531 2.839844 C 35.847656 4.503906 40.15625 5.375 44.496094 5.925781 C 48.207031 6.257812 51.917969 6.589844 55.460938 5.117188 C 56.792969 4.75 57.964844 4.367188 59.300781 3.996094 C 59.972656 3.734375 60.664062 3.304688 61.351562 2.878906 C 62.214844 2.308594 63.078125 1.734375 63.929688 1.324219 C 66.84375 -0.367188 69.59375 -2.074219 71.628906 -4.816406 C 73.28125 -6.945312 75.097656 -9.058594 76.441406 -11.375 C 78.898438 -15.222656 81.03125 -19.09375 82.710938 -23.332031 C 84.976562 -28.65625 87.078125 -33.996094 88.242188 -39.746094 C 88.53125 -41.179688 88.5 -42.648438 89.113281 -44.054688 C 89.742188 -45.625 89.738281 -47.414062 90.042969 -49.011719 C 90.144531 -50.140625 90.246094 -51.269531 90.347656 -52.398438 Z M 32.664062 -52.675781 C 32.804688 -57.863281 33.574219 -62.835938 35.148438 -67.734375 C 37.148438 -73.730469 40.085938 -79.320312 44.5625 -83.960938 C 47.050781 -86.339844 50.261719 -87.675781 53.644531 -87.375 C 57.046875 -87.234375 60.011719 -85.832031 62.417969 -83.664062 C 62.710938 -83.3125 63.019531 -83.125 63.136719 -82.625 C 64.679688 -79.886719 65.875 -76.855469 66.566406 -73.703125 C 67.441406 -68.910156 67.976562 -63.988281 68.039062 -59.269531 C 67.828125 -55.058594 67.304688 -51.042969 66.785156 -47.027344 C 66.554688 -44.445312 66.164062 -41.878906 65.460938 -39.503906 C 64.167969 -34.09375 62.546875 -28.710938 60.136719 -23.5625 C 59.128906 -21.375 57.664062 -19.554688 55.484375 -18.777344 C 52.773438 -17.554688 49.785156 -16.847656 46.777344 -17.765625 C 45.03125 -18.246094 43.285156 -18.726562 41.554688 -19.371094 C 38.09375 -20.65625 36.039062 -23.113281 34.539062 -26.335938 C 33.097656 -30.203125 32.621094 -33.984375 32.320312 -37.914062 C 31.960938 -42.984375 31.910156 -47.867188 32.664062 -52.675781 Z M 32.664062 -52.675781 "/></g></g></g><g fill="#ff5758" fill-opacity="1"><g transform="translate(421.784613, 227.047734)"><g><path d="M 29.761719 -17.953125 C 29.683594 -18.921875 29.621094 -19.726562 29.542969 -20.695312 C 29.222656 -24.730469 28.902344 -28.765625 28.757812 -32.652344 C 28.667969 -33.78125 28.667969 -33.78125 29.636719 -33.859375 C 31.074219 -34.136719 32.355469 -34.398438 33.792969 -34.675781 C 34.921875 -34.765625 36.039062 -35.015625 36.996094 -35.253906 C 37.804688 -35.320312 38.3125 -35.035156 38.527344 -34.402344 C 39.648438 -32.542969 40.929688 -30.695312 42.066406 -28.671875 C 44.347656 -24.46875 46.644531 -20.101562 49.261719 -15.761719 C 51.679688 -11.894531 54.421875 -8.050781 57 -4.195312 C 57.175781 -4.046875 57.1875 -3.886719 57.347656 -3.898438 C 57.734375 -3.117188 58.40625 -2.84375 59.199219 -3.070312 C 60.332031 -3.160156 61.300781 -3.238281 62.269531 -3.3125 C 66.949219 -3.683594 71.628906 -4.054688 76.308594 -4.425781 C 77.265625 -4.664062 78.074219 -4.730469 79.027344 -4.96875 C 80.777344 -5.429688 81.914062 -7.472656 81.289062 -9.207031 C 80.703125 -10.460938 79.941406 -11.863281 79.195312 -13.101562 C 78.796875 -14.042969 78.085938 -14.800781 77.699219 -15.582031 C 76.140625 -18.867188 74.59375 -21.996094 73.03125 -25.28125 C 71.910156 -27.140625 70.773438 -29.164062 69.8125 -31.035156 C 69.054688 -32.4375 68.453125 -33.851562 67.542969 -35.078125 C 65.675781 -38.179688 63.804688 -41.277344 61.773438 -44.367188 C 61.410156 -44.824219 61.375 -45.308594 61.992188 -45.683594 C 63.035156 -46.902344 64.261719 -47.8125 64.964844 -49.167969 C 66.699219 -51.902344 68.429688 -54.640625 69.328125 -57.632812 C 71.300781 -63.476562 72.457031 -69.414062 71.792969 -75.695312 C 71.488281 -79.570312 71.019531 -83.429688 70.390625 -87.277344 C 69.339844 -94.339844 66.878906 -100.804688 63.476562 -106.871094 C 62.925781 -107.636719 62.378906 -108.40625 61.667969 -109.164062 C 61.308594 -109.621094 60.785156 -110.066406 60.25 -110.675781 C 57.398438 -113.859375 53.667969 -115.835938 49.542969 -116.648438 C 48.886719 -116.757812 48.226562 -116.867188 47.570312 -116.976562 C 45.570312 -117.628906 43.617188 -117.636719 41.683594 -117.484375 C 40.714844 -117.40625 39.746094 -117.332031 38.777344 -117.253906 C 33.4375 -116.992188 28.261719 -116.746094 23.082031 -116.496094 C 19.195312 -116.351562 15.320312 -116.042969 11.289062 -115.722656 C 8.21875 -115.480469 4.980469 -115.386719 1.765625 -114.96875 C -0.804688 -114.601562 -1.695312 -113.558594 -1.679688 -111.285156 C -1.546875 -107.558594 -1.425781 -103.996094 -1.304688 -100.433594 C -1.328125 -98.644531 -1.023438 -96.882812 -0.882812 -95.105469 C -0.515625 -92.535156 0.171875 -89.992188 0.375 -87.410156 C 1.03125 -83.238281 1.351562 -79.203125 1.832031 -75.183594 C 2.832031 -62.59375 3.832031 -50.003906 4.828125 -37.414062 C 5.9375 -25.484375 6.550781 -13.675781 7 -1.855469 C 7.003906 0.257812 7.875 1 9.972656 0.832031 C 10.941406 0.757812 11.910156 0.679688 12.890625 0.765625 C 15.3125 0.570312 17.597656 0.714844 20.03125 0.683594 C 22.453125 0.492188 24.710938 0.3125 27.132812 0.121094 C 29.394531 -0.0585938 30.273438 -1.265625 30.253906 -3.535156 C 30.042969 -8.230469 29.984375 -13.097656 29.761719 -17.953125 Z M 25.566406 -74.953125 C 25.066406 -81.246094 24.417969 -87.367188 23.929688 -93.5 C 23.84375 -94.632812 23.84375 -94.632812 24.972656 -94.71875 C 28.359375 -94.988281 31.738281 -95.417969 35.128906 -95.6875 C 37.710938 -95.894531 40.355469 -95.289062 42.691406 -94.5 C 43.859375 -94.105469 44.730469 -93.363281 45.320312 -92.109375 C 46.628906 -89.941406 47.453125 -87.734375 47.65625 -85.152344 C 48.152344 -80.964844 48.644531 -76.78125 48.332031 -72.535156 C 48.253906 -69.441406 47.339844 -66.609375 46.414062 -63.9375 C 45.984375 -63.253906 45.710938 -62.582031 45.613281 -61.761719 C 44.933594 -60.085938 43.894531 -58.867188 42.320312 -58.253906 C 40.59375 -57.464844 38.695312 -56.828125 36.785156 -56.351562 C 34.242188 -55.664062 31.335938 -55.433594 28.59375 -55.214844 C 27.625 -55.136719 27.460938 -55.125 27.386719 -56.09375 C 27.148438 -57.050781 27.246094 -57.871094 27.167969 -58.839844 C 26.746094 -64.164062 26.148438 -69.640625 25.726562 -74.964844 C 25.726562 -74.964844 25.726562 -74.964844 25.566406 -74.953125 Z M 25.566406 -74.953125 "/></g></g></g><g fill="#ff5758" fill-opacity="1"><g transform="translate(519.331804, 218.533826)"><g><path d="M 12.890625 -63.449219 C 13.046875 -63.488281 13.007812 -63.644531 13.164062 -63.683594 C 13.203125 -63.527344 13.359375 -63.566406 13.398438 -63.410156 C 15.480469 -60.421875 18.382812 -58.144531 20.855469 -55.589844 C 24.269531 -51.933594 27.800781 -48.476562 31.371094 -44.859375 C 34 -42.34375 36.433594 -39.949219 39.023438 -37.589844 C 41.847656 -34.957031 44.753906 -32.675781 47.105469 -29.925781 C 48.558594 -28.117188 49.96875 -26.46875 51.382812 -24.816406 C 54.246094 -22.027344 57.269531 -19.277344 60.171875 -16.328125 C 60.800781 -15.816406 61.585938 -15.347656 62.214844 -14.835938 C 62.761719 -14.636719 63.429688 -14.636719 63.746094 -14.714844 C 65.785156 -15.226562 67.789062 -15.890625 69.832031 -16.398438 C 71.363281 -16.949219 73.015625 -17.695312 74.78125 -17.96875 C 76.507812 -18.398438 77.609375 -19.339844 78.515625 -21.066406 C 78.828125 -21.8125 79.027344 -22.363281 78.789062 -23.304688 C 77.890625 -26.25 77.105469 -29.390625 76.363281 -32.378906 C 74.445312 -38.742188 72.5625 -44.945312 70.957031 -51.386719 C 68.257812 -61.558594 65.832031 -71.96875 63.128906 -82.140625 C 60.898438 -91.097656 58.507812 -100.011719 56.003906 -108.730469 C 54.199219 -115.289062 51.769531 -121.691406 50.285156 -128.332031 C 50.089844 -129.117188 49.460938 -129.628906 48.753906 -129.785156 C 48.398438 -129.863281 48.046875 -129.941406 47.574219 -129.824219 C 46.359375 -130.023438 44.984375 -129.511719 43.726562 -129.199219 C 41.015625 -128.691406 38.148438 -128.144531 35.441406 -127.636719 C 34.027344 -127.28125 32.808594 -126.8125 31.667969 -126.027344 C 30.6875 -125.28125 30.175781 -124.65625 30.488281 -123.398438 C 31.625 -118.84375 32.757812 -114.285156 34.011719 -109.925781 C 35.460938 -104.78125 37.382812 -99.753906 38.671875 -94.570312 C 41.53125 -83.765625 44.234375 -72.925781 46.894531 -62.242188 C 46.972656 -61.929688 46.894531 -61.578125 46.972656 -61.261719 C 46.621094 -61.339844 46.421875 -61.460938 46.382812 -61.617188 C 43.207031 -64.996094 39.871094 -68.335938 36.851562 -71.753906 C 34.847656 -73.757812 33.160156 -75.839844 31.316406 -77.886719 C 25.589844 -84.132812 19.859375 -90.382812 14.566406 -96.902344 C 11.230469 -100.910156 7.582031 -104.839844 4.480469 -109.242188 C 2.914062 -111.519531 0.910156 -113.523438 -0.8125 -115.765625 C -1.597656 -116.902344 -2.738281 -117.453125 -4.03125 -117.296875 C -5.957031 -116.984375 -7.882812 -116.671875 -9.804688 -116.359375 C -10.90625 -116.085938 -12.007812 -115.8125 -12.949219 -115.578125 C -14.519531 -115.1875 -16.089844 -114.792969 -17.820312 -114.363281 C -18.132812 -114.285156 -18.605469 -114.167969 -18.878906 -113.933594 C -20.214844 -112.597656 -21.003906 -111.066406 -20.492188 -109.027344 C -20.257812 -108.082031 -20.0625 -107.296875 -19.710938 -106.550781 C -19.476562 -105.609375 -19.082031 -104.703125 -18.652344 -103.644531 C -17.671875 -99.714844 -16.496094 -95.671875 -15.480469 -91.585938 C -12.582031 -79.960938 -9.726562 -68.492188 -6.867188 -57.023438 C -5.222656 -51.09375 -3.578125 -45.160156 -1.972656 -39.386719 C 0.847656 -28.078125 3.546875 -16.570312 6.328125 -5.414062 C 6.523438 -4.628906 6.679688 -4 7.03125 -3.253906 C 7.5 -2.035156 8.679688 -1.328125 9.9375 -1.640625 C 13.746094 -2.425781 17.632812 -2.890625 21.324219 -4.144531 C 22.699219 -4.65625 23.878906 -5.28125 24.980469 -6.222656 C 26.078125 -7.167969 26.355469 -8.738281 26.003906 -10.152344 C 24.867188 -14.039062 23.730469 -17.925781 22.753906 -21.855469 C 21.460938 -27.039062 20.445312 -32.460938 19.152344 -37.644531 C 17.273438 -45.851562 15.199219 -54.179688 13.164062 -62.347656 C 13.085938 -62.664062 13.007812 -62.976562 12.890625 -63.449219 Z M 12.890625 -63.449219 "/></g></g></g><path stroke-linecap="butt" transform="matrix(4.047721, 0, 0, 4.047721, 47.835199, 191.128025)" fill="none" stroke-linejoin="miter" d="M 9.883252 20.642621 C 9.755866 20.437066 9.677697 20.281693 9.599528 20.115705 C 9.35537 19.675642 9.16043 19.275147 8.964525 18.884302 C 8.759935 18.484771 8.515777 18.044709 8.319872 17.644213 C 8.242668 17.439623 8.164499 17.243718 8.037113 17.077729 C 7.558448 16.121366 7.079784 15.203604 6.679289 14.197057 C 6.640687 14.080286 6.562518 13.96255 6.523916 13.836129 C 6.396529 13.679791 6.279758 13.562055 6.035601 13.523453 C 5.517369 13.484851 5.038705 13.435634 4.521438 13.484851 C 3.916352 13.523453 3.359519 13.484851 2.764084 13.523453 C 2.236202 13.562055 1.718935 13.601622 1.200704 13.679791 C 0.839775 13.718393 0.761606 13.923948 0.879342 14.236624 C 1.1235 14.763541 1.357042 15.242206 1.640766 15.759472 C 2.1976 16.716801 2.724517 17.761949 3.203181 18.75788 C 3.720447 19.841631 4.199112 20.877128 4.805163 21.88271 C 5.556936 23.162365 6.31836 24.480622 7.079784 25.759313 C 7.480279 26.403966 7.558448 27.078535 7.519846 27.800392 C 7.441677 29.440976 7.480279 31.081559 7.519846 32.683541 C 7.558448 33.885027 7.598015 35.037296 7.636617 36.199216 C 7.636617 37.917968 7.636617 39.675323 7.636617 41.404691 C 7.636617 41.882391 7.958944 42.195067 8.47621 42.195067 C 9.677697 42.244284 10.879183 42.156465 12.079704 42.038729 C 12.4802 42.000127 12.763924 41.716402 12.763924 41.316872 C 12.802526 40.163638 12.802526 39.041286 12.802526 37.917968 C 12.802526 35.79872 12.802526 33.679472 12.802526 31.560224 C 12.802526 31.004355 12.802526 30.476473 12.763924 29.959207 C 12.763924 29.558712 12.763924 29.158216 12.763924 28.757721 C 12.763924 28.396792 12.763924 28.034899 12.763924 27.683621 C 12.763924 27.244523 12.802526 26.756209 12.958864 26.316146 C 13.115202 25.79888 13.281191 25.281613 13.515697 24.763382 C 14.042614 23.56286 14.599448 22.399976 15.156281 21.199455 C 15.51721 20.515235 15.879103 19.841631 16.240032 19.118809 C 16.758263 18.122878 17.275529 17.117296 17.802446 16.121366 C 17.958784 15.837641 18.07652 15.564532 18.242509 15.242206 C 18.35928 14.959446 18.477016 14.63712 18.643004 14.363046 C 18.721173 14.158455 18.876546 14.002117 18.759775 13.796562 C 18.643004 13.523453 18.398847 13.601622 18.16434 13.601622 C 17.597856 13.640224 17.079624 13.679791 16.523756 13.679791 C 15.595379 13.718393 14.717184 13.75796 13.798457 13.796562 C 13.642119 13.796562 13.515697 13.836129 13.437529 14.002117 C 13.320758 14.197057 13.16442 14.441215 13.0766 14.63712 C 12.558369 15.759472 12.041102 16.844188 11.396449 17.87872 C 10.879183 18.718313 10.400518 19.558871 10.000023 20.476633 C 9.960456 20.515235 9.921854 20.564452 9.883252 20.642621 Z M 21.60281 28.523214 C 21.564208 29.440976 21.524641 30.964788 21.476389 32.478951 C 21.436822 34.158136 21.39822 35.79872 21.358653 37.478871 C 21.320051 38.64079 21.320051 39.842277 21.280484 41.042798 C 21.241882 41.48286 21.476389 41.804222 21.680979 42.116898 C 21.719581 42.195067 21.837317 42.282886 21.963739 42.322453 C 22.364234 42.400622 22.755079 42.55696 23.116973 42.55696 C 23.916998 42.595562 24.717989 42.595562 25.479413 42.55696 C 26.241802 42.517393 27.003226 42.439224 27.754999 42.400622 C 28.800148 42.400622 29.923465 42.400622 30.957998 42.361055 C 31.68082 42.322453 32.36504 42.244284 33.038644 42.244284 C 34.395503 42.195067 35.724376 42.195067 37.081235 42.156465 C 37.27714 42.156465 37.481731 42.156465 37.598502 42.000127 C 37.882226 41.6778 38.077166 41.355474 38.077166 40.916376 C 38.116733 39.997649 37.960395 39.079888 37.920828 38.162126 C 37.920828 37.839799 37.920828 37.439304 37.5599 37.195146 C 37.5599 37.195146 37.5599 37.156544 37.521298 37.116977 C 37.315742 36.756049 36.915247 36.560144 36.524402 36.638313 C 36.358414 36.638313 36.202076 36.67788 36.036087 36.638313 C 35.558388 36.638313 35.040156 36.599711 34.561492 36.599711 C 33.800068 36.638313 33.038644 36.716482 32.276255 36.716482 C 30.919396 36.756049 29.561572 36.756049 28.243314 36.756049 C 27.882386 36.804301 27.882386 36.756049 27.882386 36.443373 C 27.882386 35.60378 27.882386 34.763222 27.882386 33.963196 C 27.842819 32.478951 27.842819 31.042957 27.842819 29.597314 C 27.842819 29.080047 27.882386 29.080047 28.399652 29.080047 C 29.317414 29.001878 30.236141 28.963276 31.163553 28.885107 C 32.003146 28.83589 32.804137 28.719119 33.64373 28.64095 C 33.995008 28.64095 34.395503 28.64095 34.795999 28.64095 C 35.118325 28.601383 35.323881 28.435394 35.323881 28.084116 C 35.323881 27.156704 35.323881 26.277544 35.284314 25.398384 C 35.284314 24.997889 35.236061 24.597393 35.196494 24.196898 C 35.157892 23.923789 35.157892 23.923789 34.883818 23.923789 C 34.601059 23.923789 34.356901 23.923789 34.083792 23.923789 C 32.999077 23.923789 31.876725 23.885187 30.763058 23.923789 C 29.883898 23.923789 28.995088 23.963356 28.077326 23.963356 C 27.804217 23.963356 27.754999 23.963356 27.754999 23.641029 C 27.804217 22.517712 27.842819 21.404045 27.842819 20.242126 C 27.882386 19.997969 27.882386 19.997969 28.116893 19.959367 C 29.044305 19.841631 30.001634 19.803029 30.919396 19.763462 C 32.042713 19.763462 33.116813 19.763462 34.239165 19.72486 C 35.040156 19.675642 35.879749 19.63704 36.68074 19.597473 C 37.003066 19.558871 37.315742 19.519304 37.521298 19.236545 C 37.676671 19.002038 37.804057 18.718313 37.75484 18.435554 C 37.716238 17.195465 37.676671 15.965028 37.638069 14.724939 C 37.598502 14.040719 37.237573 13.562055 36.524402 13.523453 C 36.397981 13.523453 36.241643 13.523453 36.163474 13.562055 C 35.762978 13.640224 35.40205 13.601622 35.040156 13.601622 C 34.278732 13.601622 33.517309 13.562055 32.804137 13.562055 C 32.315822 13.562055 31.876725 13.523453 31.436662 13.523453 C 29.757477 13.523453 28.038724 13.562055 26.358573 13.562055 C 26.241802 13.562055 26.124066 13.601622 25.958078 13.601622 C 25.235256 13.601622 24.483482 13.601622 23.722059 13.601622 C 23.36113 13.601622 22.960635 13.601622 22.598741 13.601622 C 22.041908 13.679791 21.759148 13.96255 21.759148 14.519384 C 21.719581 14.675722 21.759148 14.803108 21.759148 14.919879 C 21.759148 15.476713 21.79775 16.043197 21.79775 16.60003 C 21.719581 20.358897 21.680979 24.118729 21.60281 28.523214 Z M 50.041847 42.478791 C 51.243333 42.478791 52.395602 42.361055 53.51892 41.804222 C 53.763077 41.638233 53.997584 41.521462 54.241741 41.404691 C 55.041767 40.838207 55.882325 40.319976 56.477761 39.51995 C 57.044245 38.757561 57.601078 38.034739 57.962006 37.156544 C 58.72343 35.437792 58.919335 33.601303 58.557442 31.716562 C 58.479273 31.237897 58.284333 30.720631 58.118344 30.241966 C 58.001573 29.959207 57.835585 29.7247 57.717849 29.440976 C 57.44474 28.885107 56.995027 28.435394 56.517328 28.084116 C 56.321423 27.95673 56.204652 27.76179 55.999096 27.595801 C 55.754939 27.400861 55.48183 27.195306 55.237672 26.960799 C 54.759008 26.560304 54.241741 26.316146 53.684908 26.043037 C 53.118424 25.720711 52.522989 25.476553 51.956505 25.203444 C 51.800167 25.115625 51.604262 25.076058 51.438273 24.959287 C 50.842838 24.597393 50.159583 24.236465 49.564148 23.835969 C 49.163652 23.601462 48.801759 23.318703 48.518999 22.95681 C 48.235275 22.644134 48.078937 22.283205 48.040335 21.88271 C 48.000768 21.560383 48.040335 21.199455 48.118504 20.877128 C 48.235275 20.515235 48.518999 20.203524 48.841326 19.959367 C 49.163652 19.675642 49.524581 19.480702 49.915426 19.480702 C 50.755019 19.402533 51.643829 19.402533 52.483422 19.63704 C 52.962086 19.763462 53.362582 19.959367 53.684908 20.320295 C 53.919415 20.564452 54.241741 20.759392 54.524501 21.00355 C 54.60267 21.043117 54.680839 21.121286 54.759008 21.121286 C 55.159503 21.121286 55.520432 21.081719 55.804156 20.798959 C 56.077265 20.515235 56.36099 20.242126 56.605147 19.959367 C 56.995027 19.441135 57.395522 18.962471 57.796018 18.435554 C 58.079742 18.084276 58.118344 17.722382 57.923404 17.321887 C 57.679247 16.922357 57.356921 16.560463 57.044245 16.199535 C 56.605147 15.603134 56.038663 15.203604 55.442263 14.803108 C 54.720406 14.236624 53.919415 13.923948 53.079822 13.679791 C 52.395602 13.484851 51.721998 13.396066 51.038743 13.396066 C 49.837257 13.435634 48.684988 13.562055 47.601238 14.118888 C 47.35708 14.236624 47.122573 14.363046 46.878416 14.519384 C 46.037858 15.03665 45.237832 15.603134 44.602829 16.404125 C 44.036346 17.155898 43.479512 17.87872 43.118584 18.75788 C 42.35716 20.476633 42.161255 22.321807 42.523148 24.158296 C 42.639919 24.802949 42.884077 25.476553 43.157186 26.081639 C 43.401343 26.599871 43.685068 27.078535 44.124165 27.478065 C 44.52466 27.800392 44.875938 28.162285 45.276434 28.484612 C 45.755098 28.83589 46.243413 29.158216 46.722078 29.519145 C 46.956585 29.675483 47.200742 29.802869 47.483501 29.91964 C 47.883997 30.115545 48.323094 30.398304 48.763157 30.564293 C 49.475363 30.7988 50.081414 31.199295 50.716417 31.560224 C 51.155514 31.804381 51.556009 32.078455 51.956505 32.361215 C 52.44482 32.683541 52.757496 33.084037 52.962086 33.601303 C 53.235195 34.441861 53.040255 35.203285 52.44482 35.760118 C 51.995107 36.199216 51.438273 36.404771 50.842838 36.599711 C 50.364174 36.716482 49.915426 36.716482 49.436761 36.560144 C 48.919495 36.404771 48.44083 36.199216 47.923564 36.004276 C 47.718008 35.916456 47.56167 35.79872 47.35708 35.681949 C 46.76068 35.359623 46.360184 34.802789 45.882485 34.324125 C 45.716496 34.079967 45.560158 33.83581 45.364253 33.601303 C 45.237832 33.484532 45.120096 33.278976 44.875938 33.357145 C 44.641431 33.396712 44.436841 33.484532 44.241901 33.679472 C 43.958177 33.963196 43.685068 34.236305 43.362741 34.480463 C 42.718088 34.91956 42.161255 35.515961 41.556169 36.004276 C 41.360264 36.160614 41.282095 36.404771 41.360264 36.638313 C 41.478 36.922037 41.556169 37.244364 41.722157 37.478871 C 42.239424 38.357066 42.796257 39.197624 43.557681 39.880878 C 43.801839 40.115385 44.036346 40.319976 44.319105 40.515881 C 44.52466 40.681869 44.797769 40.838207 45.041927 41.004196 C 45.755098 41.521462 46.556089 41.882391 47.4449 42.116898 C 48.284492 42.322453 49.124085 42.517393 50.041847 42.478791 Z M 71.121418 29.158216 C 71.160985 29.158216 71.160985 29.158216 71.160985 29.158216 C 71.160985 29.041445 71.160985 28.923709 71.199587 28.797288 C 71.277756 26.88263 71.355925 24.959287 71.395492 22.996377 C 71.443745 21.844108 71.395492 20.642621 71.395492 19.441135 C 71.395492 19.324364 71.395492 19.196978 71.395492 19.118809 C 71.395492 18.962471 71.443745 18.923869 71.600083 18.923869 C 71.795023 18.923869 72.03918 18.923869 72.244736 18.923869 C 73.318835 18.884302 74.442153 18.75788 75.554854 18.884302 C 75.643639 18.884302 75.720843 18.884302 75.799012 18.884302 C 76.121338 18.836049 76.239074 18.679711 76.277676 18.357385 C 76.277676 18.084276 76.277676 17.800551 76.277676 17.556394 C 76.317243 16.443692 76.443665 15.358977 76.395412 14.275226 C 76.395412 13.836129 76.277676 13.75796 75.877181 13.75796 C 75.164975 13.75796 74.442153 13.796562 73.719331 13.796562 C 70.720923 13.836129 67.762082 13.836129 64.764639 13.640224 C 63.797659 13.601622 62.801728 13.640224 61.8444 13.679791 C 61.522073 13.718393 61.356085 13.836129 61.316518 14.197057 C 61.199747 15.358977 61.161145 16.521861 61.161145 17.68378 C 61.161145 18.044709 61.199747 18.357385 61.239314 18.679711 C 61.277916 18.884302 61.394687 19.002038 61.560675 19.002038 C 61.678411 19.002038 61.795182 19.002038 61.922569 19.002038 C 63.279428 18.884302 64.637252 18.923869 65.955509 18.923869 C 66.199667 18.923869 66.199667 18.923869 66.199667 19.158376 C 66.239234 19.675642 66.239234 20.203524 66.239234 20.759392 C 66.239234 22.117217 66.239234 23.484691 66.161065 24.881118 C 66.043329 26.88263 65.955509 28.885107 65.955509 30.838367 C 65.916907 33.034819 66.004727 35.203285 66.004727 37.361135 C 66.004727 38.718959 66.004727 40.075818 66.004727 41.443293 C 66.004727 41.921958 66.277836 42.195067 66.7565 42.282886 C 66.961091 42.322453 67.195598 42.322453 67.439755 42.361055 C 68.475253 42.517393 69.480834 42.439224 70.476765 42.244284 C 70.720923 42.156465 70.916828 42.000127 70.916828 41.716402 C 70.95543 40.437712 71.043249 39.158057 71.043249 37.879366 C 71.082816 34.959127 71.121418 32.078455 71.121418 29.158216 Z M 79.202741 28.523214 C 79.164139 29.440976 79.124572 30.964788 79.076319 32.478951 C 79.036752 34.158136 78.99815 35.79872 78.958583 37.478871 C 78.919981 38.64079 78.919981 39.842277 78.880414 41.042798 C 78.841812 41.48286 79.076319 41.804222 79.28091 42.116898 C 79.320477 42.195067 79.437248 42.282886 79.564634 42.322453 C 79.964165 42.400622 80.35501 42.55696 80.716903 42.55696 C 81.516929 42.595562 82.31792 42.595562 83.079344 42.55696 C 83.841733 42.517393 84.603156 42.439224 85.35493 42.400622 C 86.400078 42.400622 87.523395 42.400622 88.557928 42.361055 C 89.28075 42.322453 89.96497 42.244284 90.638574 42.244284 C 91.995434 42.195067 93.324307 42.195067 94.681166 42.156465 C 94.877071 42.156465 95.081661 42.156465 95.199397 42.000127 C 95.482157 41.6778 95.677097 41.355474 95.677097 40.916376 C 95.716664 39.997649 95.560326 39.079888 95.520759 38.162126 C 95.520759 37.839799 95.520759 37.439304 95.15983 37.195146 C 95.15983 37.195146 95.15983 37.156544 95.121228 37.116977 C 94.915673 36.756049 94.515177 36.560144 94.124332 36.638313 C 93.958344 36.638313 93.802006 36.67788 93.636018 36.638313 C 93.158318 36.638313 92.640087 36.599711 92.161422 36.599711 C 91.399998 36.638313 90.638574 36.716482 89.876186 36.716482 C 88.519326 36.756049 87.161502 36.756049 85.843245 36.756049 C 85.482316 36.804301 85.482316 36.756049 85.482316 36.443373 C 85.482316 35.60378 85.482316 34.763222 85.482316 33.963196 C 85.442749 32.478951 85.442749 31.042957 85.442749 29.597314 C 85.442749 29.080047 85.482316 29.080047 85.999583 29.080047 C 86.917345 29.001878 87.836071 28.963276 88.763484 28.885107 C 89.603077 28.83589 90.404068 28.719119 91.24366 28.64095 C 91.594938 28.64095 91.995434 28.64095 92.395929 28.64095 C 92.718256 28.601383 92.923811 28.435394 92.923811 28.084116 C 92.923811 27.156704 92.923811 26.277544 92.884244 25.398384 C 92.884244 24.997889 92.835992 24.597393 92.796425 24.196898 C 92.757823 23.923789 92.757823 23.923789 92.483749 23.923789 C 92.200989 23.923789 91.956832 23.923789 91.683723 23.923789 C 90.599007 23.923789 89.476655 23.885187 88.362988 23.923789 C 87.483828 23.923789 86.595018 23.963356 85.677256 23.963356 C 85.404147 23.963356 85.35493 23.963356 85.35493 23.641029 C 85.404147 22.517712 85.442749 21.404045 85.442749 20.242126 C 85.482316 19.997969 85.482316 19.997969 85.716823 19.959367 C 86.644236 19.841631 87.601564 19.803029 88.519326 19.763462 C 89.642644 19.763462 90.716743 19.763462 91.839096 19.72486 C 92.640087 19.675642 93.480645 19.63704 94.28067 19.597473 C 94.602997 19.558871 94.915673 19.519304 95.121228 19.236545 C 95.276601 19.002038 95.403988 18.718313 95.35477 18.435554 C 95.316168 17.195465 95.276601 15.965028 95.237999 14.724939 C 95.199397 14.040719 94.837504 13.562055 94.124332 13.523453 C 93.997911 13.523453 93.841573 13.523453 93.763404 13.562055 C 93.362909 13.640224 93.00198 13.601622 92.640087 13.601622 C 91.878663 13.601622 91.117239 13.562055 90.404068 13.562055 C 89.915753 13.562055 89.476655 13.523453 89.036593 13.523453 C 87.357407 13.523453 85.638654 13.562055 83.958503 13.562055 C 83.841733 13.562055 83.723997 13.601622 83.558008 13.601622 C 82.835186 13.601622 82.083413 13.601622 81.321989 13.601622 C 80.96106 13.601622 80.560565 13.601622 80.198672 13.601622 C 79.641838 13.679791 79.359079 13.96255 79.359079 14.519384 C 79.320477 14.675722 79.359079 14.803108 79.359079 14.919879 C 79.359079 15.476713 79.397681 16.043197 79.397681 16.60003 C 79.320477 20.358897 79.28091 24.118729 79.202741 28.523214 Z M 104.995612 38.162126 C 104.995612 37.917968 104.995612 37.723028 104.995612 37.478871 C 104.995612 36.481975 104.995612 35.476394 105.04483 34.519065 C 105.04483 34.236305 105.04483 34.236305 105.279337 34.236305 C 105.640265 34.197703 105.962592 34.158136 106.32352 34.119534 C 106.597594 34.119534 106.880354 34.079967 107.124511 34.041365 C 107.319451 34.041365 107.437187 34.119534 107.475789 34.275872 C 107.719946 34.763222 108.003671 35.241887 108.238178 35.760118 C 108.716842 36.843868 109.205157 37.95657 109.761026 39.079888 C 110.279257 40.075818 110.884343 41.082365 111.441176 42.078296 C 111.479778 42.116898 111.479778 42.156465 111.519345 42.156465 C 111.597514 42.361055 111.763503 42.439224 111.958443 42.400622 C 112.242167 42.400622 112.475709 42.400622 112.719867 42.400622 C 113.882751 42.400622 115.04467 42.400622 116.196939 42.400622 C 116.441097 42.361055 116.636037 42.361055 116.880194 42.322453 C 117.320257 42.244284 117.642583 41.755969 117.515197 41.316872 C 117.398426 41.004196 117.242088 40.642302 117.076099 40.319976 C 116.99793 40.075818 116.841592 39.880878 116.763423 39.675323 C 116.441097 38.83573 116.11877 38.034739 115.796444 37.195146 C 115.561937 36.716482 115.317779 36.199216 115.122839 35.720551 C 114.956851 35.359623 114.839115 34.997729 114.644175 34.675403 C 114.243679 33.885027 113.843184 33.084037 113.404087 32.283046 C 113.316267 32.156624 113.316267 32.038888 113.482256 31.960719 C 113.755365 31.67796 114.077691 31.482055 114.283247 31.159728 C 114.760946 30.51604 115.23961 29.881038 115.523335 29.158216 C 116.11877 27.76179 116.519266 26.316146 116.479699 24.763382 C 116.479699 23.796402 116.441097 22.840039 116.362928 21.88271 C 116.235541 20.115705 115.757842 18.484771 115.04467 16.922357 C 114.917284 16.716801 114.800513 16.521861 114.644175 16.316306 C 114.556355 16.199535 114.438619 16.081799 114.321848 15.91581 C 113.677196 15.076217 112.798036 14.519384 111.802105 14.236624 C 111.636116 14.197057 111.479778 14.158455 111.32344 14.118888 C 110.835125 13.923948 110.357426 13.884381 109.878762 13.884381 C 109.644255 13.884381 109.400097 13.884381 109.15594 13.884381 C 107.837682 13.836129 106.558027 13.796562 105.279337 13.75796 C 104.322008 13.718393 103.355029 13.718393 102.359098 13.718393 C 101.597674 13.718393 100.796683 13.679791 99.995692 13.718393 C 99.36069 13.75796 99.116532 14.002117 99.07793 14.558951 C 99.038363 15.476713 98.999761 16.355873 98.960194 17.243718 C 98.921592 17.68378 98.960194 18.122878 98.960194 18.56294 C 98.999761 19.196978 99.116532 19.841631 99.116532 20.476633 C 99.204352 21.521781 99.204352 22.517712 99.243919 23.523293 C 99.243919 26.638472 99.243919 29.763302 99.243919 32.878481 C 99.282521 35.838287 99.204352 38.757561 99.07793 41.6778 C 99.038363 42.195067 99.243919 42.400622 99.761185 42.400622 C 99.995692 42.400622 100.23985 42.400622 100.484007 42.439224 C 101.079442 42.439224 101.636276 42.517393 102.241362 42.55696 C 102.837762 42.55696 103.404246 42.55696 103.999682 42.55696 C 104.556515 42.55696 104.800672 42.282886 104.839274 41.716402 C 104.878841 40.564133 104.95701 39.363612 104.995612 38.162126 Z M 105.083432 24.04056 C 105.083432 22.478145 105.04483 20.964948 105.04483 19.441135 C 105.04483 19.158376 105.04483 19.158376 105.317939 19.158376 C 106.157532 19.158376 106.99809 19.118809 107.837682 19.118809 C 108.482335 19.118809 109.116373 19.324364 109.682857 19.558871 C 109.956931 19.675642 110.161521 19.881198 110.279257 20.203524 C 110.562017 20.759392 110.718355 21.316226 110.718355 21.960879 C 110.756957 22.996377 110.796524 24.04056 110.640186 25.076058 C 110.562017 25.837482 110.279257 26.521702 109.995533 27.156704 C 109.878762 27.322692 109.800593 27.478065 109.761026 27.683621 C 109.556435 28.084116 109.282361 28.357225 108.882831 28.484612 C 108.442768 28.64095 107.964104 28.757721 107.475789 28.83589 C 106.841752 28.963276 106.11893 28.963276 105.43471 28.963276 C 105.201168 28.963276 105.161601 28.963276 105.161601 28.719119 C 105.122999 28.484612 105.161601 28.279056 105.161601 28.034899 C 105.161601 26.716641 105.122999 25.359782 105.122999 24.04056 C 105.122999 24.04056 105.122999 24.04056 105.083432 24.04056 Z M 127.362559 42.156465 C 127.636633 42.156465 127.919393 42.116898 128.203117 42.156465 C 129.277217 42.195067 130.322365 42.156465 131.356898 41.96056 C 131.923382 41.882391 132.441613 41.755969 132.919313 41.521462 C 132.997482 41.443293 133.124868 41.443293 133.203037 41.404691 C 134.315739 40.876809 135.322286 40.115385 136.240047 39.275793 C 136.522807 39.041286 136.718712 38.679392 136.962869 38.396633 C 137.480136 37.839799 137.842029 37.195146 138.163391 36.521542 C 138.515634 35.720551 138.798393 34.880958 139.04255 34.041365 C 139.238455 33.357145 139.355226 32.644939 139.521215 31.922117 C 139.803974 30.682029 139.92171 29.402374 139.92171 28.122718 C 139.92171 27.283125 139.843541 26.403966 139.803974 25.564373 C 139.755722 24.802949 139.716155 24.080127 139.560782 23.357305 C 139.482613 22.800472 139.404444 22.244603 139.355226 21.678119 C 139.316624 20.837561 139.082117 20.076137 138.759791 19.324364 C 138.319729 18.435554 137.76386 17.644213 137.197376 16.882789 C 136.757314 16.316306 136.278649 15.837641 135.683214 15.515315 C 135.478624 15.398544 135.282719 15.280808 135.11673 15.164037 C 134.521295 14.63712 133.83804 14.275226 133.203037 13.884381 C 132.558384 13.523453 131.923382 13.357465 131.20056 13.435634 C 130.722861 13.523453 130.244196 13.562055 129.755881 13.484851 C 129.599543 13.435634 129.481807 13.435634 129.315819 13.435634 C 128.241719 13.484851 127.157969 13.523453 126.083869 13.523453 C 125.078288 13.523453 124.120959 13.484851 123.16363 13.484851 C 122.675315 13.484851 122.19665 13.562055 121.718951 13.640224 C 121.357058 13.679791 121.122551 13.923948 121.083949 14.275226 C 121.044382 14.63712 120.996129 14.998048 120.996129 15.358977 C 120.996129 15.799039 120.996129 16.238137 120.956562 16.678199 C 120.878393 16.922357 120.91796 17.195465 120.91796 17.439623 C 120.91796 18.044709 120.996129 18.640144 120.996129 19.275147 C 120.996129 19.997969 120.91796 20.759392 120.91796 21.521781 C 120.800224 24.362886 120.761622 27.244523 120.839791 30.075978 C 120.878393 31.316066 120.878393 32.55712 120.91796 33.797208 C 120.956562 35.320056 120.996129 36.804301 121.083949 38.278897 C 121.122551 39.363612 121.20072 40.398145 121.278889 41.443293 C 121.318456 41.755969 121.523046 42.000127 121.835722 42.038729 C 122.040313 42.078296 122.236218 42.078296 122.440808 42.078296 C 122.959039 42.078296 123.514908 42.078296 124.003223 42.078296 C 124.521454 42.116898 125.000119 42.156465 125.517385 42.156465 C 126.122471 42.156465 126.757473 42.156465 127.362559 42.156465 Z M 127.119367 28.122718 C 127.119367 27.283125 127.119367 26.482135 127.119367 25.642542 C 127.0798 23.963356 127.041198 22.244603 127.001631 20.564452 C 127.001631 20.476633 127.001631 20.398464 127.041198 20.320295 C 127.041198 20.281693 127.119367 20.203524 127.157969 20.163957 C 127.323957 20.115705 127.480295 20.115705 127.636633 20.115705 C 128.124948 20.076137 128.603613 20.076137 129.081312 20.076137 C 129.677712 20.076137 130.244196 20.203524 130.683294 20.681223 C 130.839632 20.798959 130.99597 20.91573 131.161958 21.00355 C 131.835563 21.404045 132.275625 22.039048 132.518817 22.76187 C 132.841144 23.679631 133.124868 24.597393 133.319808 25.564373 C 133.603533 26.599871 133.720304 27.644054 133.681702 28.679552 C 133.681702 29.001878 133.681702 29.362807 133.720304 29.675483 C 133.720304 30.241966 133.681702 30.720631 133.563966 31.237897 C 133.319808 32.000286 133.16347 32.723108 132.841144 33.396712 C 132.402046 34.197703 131.796961 34.841391 130.99597 35.281454 C 130.322365 35.60378 129.599543 35.720551 128.876721 35.838287 C 128.398057 35.876889 127.919393 35.964709 127.440728 36.004276 C 127.119367 36.004276 127.0798 35.964709 127.0798 35.642382 C 127.0798 34.324125 127.0798 32.95665 127.0798 31.599791 C 127.0798 30.437871 127.119367 29.274987 127.119367 28.122718 Z M 160.436728 42.361055 C 160.719487 42.439224 161.003211 42.361055 161.27632 42.282886 C 161.638214 42.195067 161.96054 41.755969 161.920973 41.404691 C 161.842804 41.120967 161.754985 40.838207 161.676816 40.564133 C 161.560045 40.115385 161.442309 39.724541 161.315887 39.324045 C 161.198151 38.797128 161.119982 38.278897 161.003211 37.801197 C 160.915392 37.439304 160.837223 37.116977 160.759054 36.756049 C 160.680885 36.160614 160.564114 35.515961 160.436728 34.91956 C 160.202221 33.885027 159.919461 32.800312 159.635737 31.756129 C 159.11847 29.841471 158.601204 27.878561 158.122539 25.964868 C 157.878382 25.115625 157.643875 24.236465 157.399718 23.435474 C 157.115993 22.399976 156.755065 21.404045 156.442389 20.398464 C 156.2764 19.763462 156.08146 19.158376 155.963724 18.523373 C 155.797736 17.800551 155.680965 17.039127 155.39724 16.355873 C 155.358638 16.238137 155.358638 16.121366 155.319071 16.00363 C 155.2023 15.476713 155.074914 14.959446 154.919541 14.441215 C 154.801805 14.002117 154.597214 13.796562 154.11855 13.836129 C 153.884043 13.884381 153.639886 13.836129 153.395728 13.796562 C 153.122619 13.75796 152.838895 13.796562 152.556135 13.836129 C 151.921133 13.923948 151.237878 14.040719 150.563309 14.118888 C 150.20238 14.158455 149.841452 14.197057 149.479558 14.236624 C 149.284618 14.236624 149.11863 14.363046 149.040461 14.558951 C 148.884123 14.84171 148.718134 15.114819 148.639965 15.398544 C 148.356241 16.355873 148.161301 17.283285 147.917143 18.240614 C 147.838974 18.56294 147.800373 18.884302 147.682637 19.158376 C 147.243539 20.72079 146.803477 22.283205 146.364379 23.835969 C 146.003451 25.037456 145.641557 26.199375 145.280629 27.400861 C 144.918735 28.719119 144.519205 29.997809 144.157312 31.277464 C 143.922805 32.195226 143.718214 33.122639 143.561876 34.041365 C 143.395888 34.91956 143.199983 35.760118 142.955825 36.599711 C 142.760885 37.156544 142.556295 37.76163 142.36039 38.357066 C 142.116232 39.275793 141.881725 40.241807 141.598966 41.160534 C 141.48123 41.599631 141.559399 41.921958 141.959894 42.156465 C 142.07763 42.244284 142.204052 42.322453 142.36039 42.322453 C 142.644114 42.361055 142.917223 42.400622 143.23955 42.400622 C 144.284698 42.361055 145.319231 42.282886 146.364379 42.244284 C 146.677055 42.244284 146.959815 42.195067 147.282141 42.156465 C 147.516648 42.156465 147.722204 42.000127 147.800373 41.755969 C 147.917143 41.48286 148.04453 41.199136 148.161301 40.916376 C 148.395808 40.437712 148.522229 39.91948 148.600398 39.402214 C 148.678567 38.83573 148.678567 38.963117 149.157232 38.963117 C 149.880054 38.963117 150.602876 38.963117 151.316047 38.92355 C 151.881566 38.884948 152.477966 38.797128 153.083052 38.757561 C 153.639886 38.718959 154.196719 38.718959 154.763203 38.718959 C 154.919541 38.679392 154.99771 38.757561 155.036312 38.92355 C 155.036312 39.158057 155.124131 39.402214 155.163698 39.636721 C 155.319071 40.476314 155.680965 41.277305 156.041893 42.078296 C 156.120062 42.195067 156.237798 42.322453 156.403787 42.400622 C 156.716463 42.64478 157.077391 42.64478 157.43832 42.595562 C 157.956551 42.55696 158.444866 42.517393 158.922565 42.478791 C 159.078903 42.478791 159.235241 42.439224 159.40123 42.439224 C 159.763123 42.400622 160.124052 42.400622 160.436728 42.361055 Z M 151.803397 24.763382 C 151.921133 25.037456 151.959735 25.359782 152.077471 25.642542 C 152.282061 26.237977 152.477966 26.804461 152.682557 27.361294 C 153.04445 28.396792 153.278957 29.519145 153.52215 30.60386 C 153.600319 30.964788 153.756657 31.277464 153.834826 31.638393 C 153.884043 31.716562 153.884043 31.756129 153.922645 31.843948 C 154.040381 32.244444 154.040381 32.244444 153.600319 32.283046 C 152.838895 32.400782 152.077471 32.400782 151.316047 32.478951 C 151.003371 32.478951 150.719647 32.478951 150.39732 32.478951 C 150.20238 32.478951 150.162813 32.478951 150.20238 32.244444 C 150.319151 31.482055 150.436887 30.720631 150.602876 29.959207 C 150.875985 28.484612 151.198311 27.000366 151.520637 25.564373 C 151.560204 25.281613 151.637408 24.997889 151.715577 24.763382 C 151.755144 24.763382 151.803397 24.763382 151.803397 24.763382 Z M 172.642671 20.642621 C 172.515284 20.437066 172.43808 20.281693 172.359911 20.115705 C 172.115754 19.675642 171.919849 19.275147 171.724909 18.884302 C 171.519353 18.484771 171.275196 18.044709 171.080256 17.644213 C 171.002087 17.439623 170.923918 17.243718 170.796531 17.077729 C 170.318832 16.121366 169.840168 15.203604 169.439672 14.197057 C 169.400105 14.080286 169.321936 13.96255 169.283334 13.836129 C 169.155948 13.679791 169.039177 13.562055 168.795019 13.523453 C 168.277753 13.484851 167.799088 13.435634 167.281822 13.484851 C 166.675771 13.523453 166.118938 13.484851 165.523502 13.523453 C 164.996585 13.562055 164.478354 13.601622 163.961087 13.679791 C 163.600159 13.718393 163.52199 13.923948 163.638761 14.236624 C 163.882919 14.763541 164.117425 15.242206 164.400185 15.759472 C 164.957018 16.716801 165.4849 17.761949 165.9626 18.75788 C 166.480831 19.841631 166.959496 20.877128 167.564581 21.88271 C 168.316355 23.162365 169.077779 24.480622 169.840168 25.759313 C 170.240663 26.403966 170.318832 27.078535 170.279265 27.800392 C 170.201096 29.440976 170.240663 31.081559 170.279265 32.683541 C 170.318832 33.885027 170.357434 35.037296 170.397001 36.199216 C 170.397001 37.917968 170.397001 39.675323 170.397001 41.404691 C 170.397001 41.882391 170.719327 42.195067 171.236594 42.195067 C 172.43808 42.244284 173.638602 42.156465 174.840088 42.038729 C 175.240583 42.000127 175.523343 41.716402 175.523343 41.316872 C 175.56291 40.163638 175.56291 39.041286 175.56291 37.917968 C 175.56291 35.79872 175.56291 33.679472 175.56291 31.560224 C 175.56291 31.004355 175.56291 30.476473 175.523343 29.959207 C 175.523343 29.558712 175.523343 29.158216 175.523343 28.757721 C 175.523343 28.396792 175.523343 28.034899 175.523343 27.683621 C 175.523343 27.244523 175.56291 26.756209 175.719248 26.316146 C 175.875586 25.79888 176.041574 25.281613 176.275116 24.763382 C 176.802998 23.56286 177.359831 22.399976 177.9157 21.199455 C 178.277593 20.515235 178.638522 19.841631 179.000415 19.118809 C 179.517682 18.122878 180.034948 17.117296 180.56283 16.121366 C 180.719168 15.837641 180.835939 15.564532 181.001927 15.242206 C 181.119663 14.959446 181.236434 14.63712 181.402423 14.363046 C 181.480592 14.158455 181.63693 14.002117 181.519194 13.796562 C 181.402423 13.523453 181.158265 13.601622 180.923758 13.601622 C 180.357274 13.640224 179.840008 13.679791 179.283175 13.679791 C 178.355762 13.718393 177.476602 13.75796 176.558841 13.796562 C 176.402503 13.796562 176.275116 13.836129 176.196947 14.002117 C 176.080176 14.197057 175.923838 14.441215 175.836019 14.63712 C 175.318752 15.759472 174.800521 16.844188 174.156833 17.87872 C 173.638602 18.718313 173.159937 19.558871 172.759442 20.476633 C 172.72084 20.515235 172.681273 20.564452 172.642671 20.642621 Z M 172.642671 20.642621 " stroke="#ff5758" stroke-width="1.5" stroke-opacity="1" stroke-miterlimit="4"/><g fill="#ff5758" fill-opacity="1"><g transform="translate(190.154587, 556.686107)"><g><path d="M 41.375 -15.648438 C 42.867188 -16.285156 45.1875 -17.445312 47.359375 -18.542969 C 49.082031 -19.453125 50.746094 -20.511719 52.320312 -21.359375 C 55.472656 -23.046875 57.648438 -25.378906 58.871094 -28.714844 C 61.546875 -35.660156 61.546875 -42.695312 59.292969 -49.65625 C 58.640625 -52.015625 57.988281 -54.378906 57.1875 -56.675781 C 55.144531 -62.316406 52.652344 -67.765625 48.582031 -72.371094 C 45.871094 -75.441406 42.605469 -77.746094 38.929688 -79.351562 C 38.230469 -79.757812 37.65625 -79.867188 36.871094 -80.058594 C 35.660156 -80.425781 35.511719 -80.363281 36.089844 -81.488281 C 36.175781 -81.699219 36.347656 -82.125 36.582031 -82.398438 C 38.457031 -84.605469 39.0625 -87.324219 39.242188 -90.214844 C 39.164062 -93.703125 38.730469 -97.210938 37.484375 -100.550781 C 36.875 -102.402344 36.113281 -104.191406 35.441406 -106.191406 C 33.753906 -110.578125 31.023438 -114.519531 27.90625 -118.121094 C 25.449219 -120.59375 22.839844 -123.003906 19.617188 -124.800781 C 17.449219 -126.167969 15.285156 -127.535156 12.480469 -127.925781 C 10.1875 -128.355469 7.785156 -128.214844 5.359375 -127.710938 C 4.253906 -127.417969 3.144531 -127.125 2.1875 -126.894531 C -1.109375 -126.371094 -4.175781 -124.890625 -7.152344 -123.625 C -10.285156 -122.296875 -13.199219 -120.878906 -16.265625 -119.402344 C -17.097656 -118.871094 -17.777344 -118.40625 -18.523438 -118.089844 C -19.355469 -117.5625 -20.035156 -117.09375 -20.78125 -116.777344 C -23.078125 -115.976562 -25.464844 -114.964844 -27.761719 -114.164062 C -28.65625 -113.785156 -29.613281 -113.550781 -30.507812 -113.171875 C -32.976562 -111.945312 -35.234375 -110.636719 -36.835938 -108.195312 C -37.625 -107.15625 -37.695312 -106.070312 -37.1875 -104.878906 C -36.785156 -104.347656 -36.59375 -103.898438 -36.488281 -103.242188 C -35.078125 -99.089844 -33.21875 -95.132812 -31.273438 -91.382812 C -30.214844 -89.722656 -29.519531 -88.082031 -28.910156 -86.230469 C -27.980469 -83.636719 -26.992188 -80.890625 -25.703125 -78.269531 C -22.765625 -71.777344 -19.617188 -65.199219 -16.683594 -58.707031 C -12.417969 -49.082031 -8.152344 -39.460938 -4.035156 -29.777344 C -1.691406 -24.261719 0.503906 -18.6875 2.609375 -12.898438 C 3.601562 -10.152344 5.253906 -7.511719 6.542969 -4.890625 C 7.386719 -3.316406 8.875 -2.714844 10.660156 -3.476562 C 12.746094 -4.363281 14.898438 -5.101562 16.855469 -6.285156 C 19.5625 -7.785156 22.519531 -8.691406 25.476562 -9.597656 C 30.585938 -11.238281 35.5 -13.328125 41.375 -15.648438 Z M 15.238281 -48.171875 C 14.015625 -50.640625 12.875 -53.324219 11.648438 -55.792969 C 11.140625 -56.984375 11.140625 -56.984375 12.269531 -57.640625 C 14.804688 -58.71875 17.421875 -60.007812 20.105469 -61.144531 C 21.742188 -61.84375 23.507812 -62.242188 25.339844 -62.492188 C 27.230469 -62.59375 28.78125 -61.84375 30.09375 -60.820312 C 34.191406 -57.808594 36.769531 -53.804688 38.222656 -49.144531 C 39.152344 -46.546875 38.546875 -43.828125 36.796875 -41.324219 C 34.320312 -37.632812 30.910156 -35.304688 27.101562 -33.507812 C 26.121094 -32.917969 25.078125 -32.472656 23.886719 -31.964844 C 23.078125 -31.800781 22.929688 -31.734375 22.546875 -32.628906 C 20.183594 -37.78125 17.667969 -42.871094 15.300781 -48.023438 C 15.300781 -48.023438 15.300781 -48.023438 15.238281 -48.171875 Z M -2.671875 -87.003906 C -4.023438 -89.769531 -5.164062 -92.453125 -6.367188 -95.285156 C -6.621094 -95.878906 -6.746094 -96.179688 -6.066406 -96.644531 C -4.042969 -97.679688 -2.082031 -98.863281 0.0898438 -99.964844 C 1.960938 -100.933594 3.960938 -101.609375 6.34375 -101.390625 C 7.789062 -101.300781 9.210938 -100.851562 10.3125 -99.910156 C 13.558594 -97.242188 15.972656 -94.046875 17.554688 -90.324219 C 17.871094 -89.578125 18.039062 -88.769531 17.78125 -88.132812 C 17.222656 -86.136719 16.242188 -84.308594 14.367188 -83.335938 C 12.195312 -82.238281 9.875 -81.078125 7.703125 -79.976562 C 6.277344 -79.195312 4.847656 -78.414062 3.484375 -77.480469 C 2.058594 -76.699219 1.996094 -76.847656 1.214844 -78.273438 C 0.0742188 -80.957031 -1.128906 -83.789062 -2.417969 -86.40625 C -2.480469 -86.554688 -2.546875 -86.703125 -2.671875 -87.003906 Z M -2.671875 -87.003906 "/></g></g></g><g fill="#ff5758" fill-opacity="1"><g transform="translate(256.631393, 527.334065)"><g><path d="M 77.832031 -17.769531 C 79.011719 -17.726562 80.03125 -18.3125 81.054688 -18.898438 C 82.390625 -19.566406 83.21875 -21.605469 82.714844 -22.980469 C 82.125 -24.003906 81.539062 -25.023438 80.953125 -26.046875 C 80.054688 -27.660156 79.191406 -29.113281 78.332031 -30.570312 C 77.355469 -32.496094 76.535156 -34.460938 75.597656 -36.230469 C 74.933594 -37.566406 74.304688 -38.746094 73.640625 -40.082031 C 72.742188 -42.363281 71.648438 -44.761719 70.59375 -47 C 68.640625 -50.855469 66.488281 -54.824219 64.378906 -58.640625 C 60.464844 -65.675781 56.515625 -72.871094 52.761719 -79.949219 C 51.003906 -83.015625 49.203125 -86.238281 47.484375 -89.148438 C 45.371094 -92.964844 42.984375 -96.542969 40.753906 -100.160156 C 39.503906 -102.519531 38.132812 -104.683594 37.039062 -107.082031 C 35.710938 -109.753906 34.5 -112.621094 32.738281 -115.023438 C 32.464844 -115.453125 32.347656 -115.925781 32.074219 -116.359375 C 31.09375 -118.285156 30.117188 -120.210938 28.984375 -122.097656 C 28.085938 -123.710938 27.105469 -124.300781 25.257812 -123.679688 C 24.351562 -123.289062 23.371094 -123.210938 22.390625 -123.136719 C 21.25 -123.019531 20.1875 -122.589844 19.128906 -122.160156 C 16.691406 -121.222656 14.136719 -120.089844 11.542969 -119.113281 C 10.164062 -118.609375 8.789062 -118.101562 7.414062 -117.59375 C 6.628906 -117.398438 6.117188 -116.769531 5.996094 -115.90625 C 5.640625 -114.652344 5.285156 -113.394531 5.242188 -112.21875 C 5.078125 -108.175781 5.1875 -104.363281 5.175781 -100.359375 C 5.171875 -99.023438 5.328125 -97.726562 5.128906 -96.511719 C 4.917969 -89.953125 4.707031 -83.394531 4.496094 -76.839844 C 4.246094 -71.773438 3.960938 -66.867188 3.714844 -61.800781 C 3.582031 -56.265625 3.257812 -50.84375 3.089844 -45.464844 C 3.039062 -41.617188 3.148438 -37.808594 3.414062 -34.039062 C 3.644531 -30.425781 3.675781 -26.929688 3.546875 -23.394531 C 3.308594 -21 3.105469 -18.449219 2.902344 -15.898438 C 2.855469 -12.050781 2.84375 -8.042969 2.640625 -4.15625 C 2.597656 -2.3125 3.222656 -1.132812 5.027344 -0.578125 C 5.578125 -0.378906 6.125 -0.183594 6.753906 -0.339844 C 7.894531 -0.453125 9.03125 -0.570312 10.289062 -0.878906 C 14.335938 -2.046875 18.347656 -3.375 22.394531 -4.542969 C 23.652344 -4.855469 24.710938 -5.285156 25.929688 -5.753906 C 26.875 -5.984375 27.503906 -6.808594 27.585938 -7.832031 C 27.785156 -9.046875 27.984375 -10.265625 28.183594 -11.480469 C 28.65625 -13.601562 28.625 -15.761719 28.433594 -17.882812 C 28.203125 -20.160156 28.316406 -19.6875 30.203125 -20.15625 C 33.035156 -20.855469 35.863281 -21.554688 38.652344 -22.414062 C 40.8125 -23.113281 43.09375 -24.011719 45.410156 -24.753906 C 47.574219 -25.457031 49.773438 -26 51.972656 -26.546875 C 52.5625 -26.859375 52.957031 -26.621094 53.269531 -26.03125 C 53.5 -25.089844 54.050781 -24.222656 54.441406 -23.320312 C 55.886719 -20.175781 58.078125 -17.382812 60.273438 -14.589844 C 60.703125 -14.195312 61.289062 -13.839844 61.996094 -13.679688 C 63.488281 -13.050781 64.902344 -13.398438 66.277344 -13.90625 C 68.28125 -14.570312 70.128906 -15.195312 71.976562 -15.820312 C 72.605469 -15.972656 73.195312 -16.285156 73.824219 -16.441406 C 75.199219 -16.949219 76.613281 -17.300781 77.832031 -17.769531 Z M 26.765625 -78.515625 C 27.507812 -77.53125 27.976562 -76.3125 28.71875 -75.332031 C 30.089844 -73.167969 31.421875 -71.160156 32.75 -69.15625 C 35.175781 -65.421875 37.210938 -61.253906 39.203125 -57.242188 C 39.867188 -55.90625 40.808594 -54.804688 41.472656 -53.46875 C 41.707031 -53.191406 41.746094 -53.035156 41.980469 -52.761719 C 42.839844 -51.304688 42.839844 -51.304688 41.152344 -50.71875 C 38.28125 -49.507812 35.296875 -48.769531 32.386719 -47.714844 C 31.128906 -47.40625 30.03125 -47.132812 28.773438 -46.820312 C 27.988281 -46.625 27.828125 -46.589844 27.753906 -47.570312 C 27.484375 -50.671875 27.21875 -53.777344 27.105469 -56.917969 C 26.769531 -63.003906 26.585938 -69.132812 26.441406 -75.101562 C 26.328125 -76.238281 26.367188 -77.417969 26.449219 -78.4375 C 26.605469 -78.476562 26.765625 -78.515625 26.765625 -78.515625 Z M 26.765625 -78.515625 "/></g></g></g><g fill="#ff5758" fill-opacity="1"><g transform="translate(333.94941, 507.230846)"><g><path d="M 23.519531 -77.703125 C 23.359375 -77.691406 23.183594 -77.839844 23.183594 -77.839844 C 23.148438 -78.324219 23.113281 -78.808594 23.078125 -79.292969 C 22.78125 -83.332031 22.472656 -87.527344 22.179688 -91.566406 C 21.746094 -95.269531 21.308594 -98.96875 20.886719 -102.511719 C 20.246094 -106.847656 19.777344 -111.035156 19.304688 -115.21875 C 19.039062 -116.660156 18.34375 -117.261719 16.890625 -117.152344 C 15.613281 -116.898438 14.15625 -116.789062 12.867188 -116.695312 C 9.636719 -116.457031 6.234375 -116.371094 3.003906 -116.132812 C 2.195312 -116.074219 1.402344 -115.855469 0.605469 -115.632812 C -0.671875 -115.378906 -1.25 -114.359375 -1.140625 -112.90625 C -0.996094 -108.699219 -0.859375 -104.648438 -0.390625 -100.460938 C -0.09375 -96.425781 0.511719 -92.574219 0.796875 -88.699219 C 1.367188 -80.949219 1.933594 -73.195312 2.339844 -65.433594 C 2.449219 -63.980469 2.542969 -62.6875 2.648438 -61.234375 C 2.867188 -56.058594 3.074219 -51.039062 3.453125 -45.871094 C 3.796875 -41.1875 4.140625 -36.507812 4.484375 -31.824219 C 4.839844 -26.980469 5.019531 -22.285156 5.214844 -17.429688 C 5.59375 -12.261719 5.972656 -7.09375 6.503906 -2.101562 C 6.539062 -1.617188 6.574219 -1.132812 6.597656 -0.808594 C 6.828125 0.148438 7.359375 0.757812 8.179688 0.859375 C 8.675781 0.988281 9.171875 1.113281 9.496094 1.089844 C 13.070312 1.152344 16.660156 1.375 20.199219 0.953125 C 21.640625 0.683594 23.257812 0.566406 24.871094 0.449219 C 26.636719 0.15625 27.546875 -0.722656 27.578125 -2.511719 C 27.679688 -3.328125 27.621094 -4.136719 27.722656 -4.957031 C 27.460938 -8.507812 27.027344 -12.210938 26.929688 -15.773438 C 26.804688 -19.664062 27.015625 -23.410156 26.734375 -27.289062 C 26.492188 -32.789062 26.25 -38.292969 26.007812 -43.792969 C 25.960938 -44.4375 25.914062 -45.085938 26.210938 -45.433594 C 27.363281 -47.464844 28.671875 -49.507812 30.132812 -51.726562 C 30.875 -50.480469 31.59375 -49.558594 32.308594 -48.640625 C 33.582031 -46.785156 35.003906 -45.101562 36.113281 -43.234375 C 36.632812 -42.789062 37.003906 -42.164062 37.214844 -41.53125 C 38.941406 -37.921875 41.277344 -34.847656 43.472656 -31.4375 C 43.84375 -30.816406 44.363281 -30.367188 44.734375 -29.746094 C 48.285156 -25.621094 51.371094 -21.140625 54.152344 -16.472656 C 55.609375 -14.308594 56.90625 -12.128906 58.039062 -9.941406 C 59.160156 -7.914062 60.445312 -5.898438 62.042969 -4.066406 C 62.5625 -3.617188 63.070312 -3.328125 63.714844 -3.375 C 66.796875 -3.441406 70.050781 -3.355469 73.128906 -3.417969 C 73.785156 -3.304688 74.269531 -3.339844 74.90625 -3.546875 C 77.636719 -3.910156 80.371094 -4.273438 83.265625 -4.648438 C 85.191406 -4.953125 86.191406 -6.8125 85.253906 -8.527344 C 84.894531 -8.988281 84.699219 -9.460938 84.351562 -9.761719 C 81.484375 -13.445312 79.089844 -17.328125 76.84375 -21.386719 C 76.300781 -22.15625 75.742188 -23.089844 75.199219 -23.863281 C 74.101562 -25.566406 72.667969 -27.410156 71.566406 -29.117188 C 70.273438 -31.292969 69.125 -33.644531 67.828125 -35.824219 C 67.445312 -36.605469 66.730469 -37.527344 66.175781 -38.460938 C 65.640625 -39.070312 64.9375 -39.832031 64.394531 -40.601562 C 62.761719 -42.917969 61.121094 -45.394531 59.476562 -47.871094 C 57.300781 -50.960938 55.128906 -54.046875 53.113281 -57.144531 C 50.925781 -60.394531 48.730469 -63.804688 46.53125 -67.214844 C 45.640625 -68.285156 44.898438 -69.53125 43.996094 -70.765625 C 43.640625 -71.222656 43.605469 -71.707031 44.050781 -72.230469 C 44.9375 -73.429688 45.664062 -74.621094 46.546875 -75.820312 C 48.160156 -78.210938 49.917969 -80.777344 51.355469 -83.316406 C 53.34375 -87.195312 55.503906 -90.925781 57.839844 -94.507812 C 58.863281 -96.042969 59.875 -97.742188 60.738281 -99.265625 C 63.027344 -103.492188 65.164062 -107.546875 67.300781 -111.597656 C 68.289062 -113.621094 69.117188 -115.628906 70.105469 -117.648438 C 70.527344 -118.492188 69.949219 -119.746094 69.292969 -119.863281 C 68.460938 -120.125 67.640625 -120.226562 66.835938 -120.167969 C 64.875 -120.347656 62.910156 -120.53125 60.972656 -120.386719 C 57.261719 -120.117188 53.683594 -120.175781 50.167969 -119.433594 C 49.046875 -119.1875 48.277344 -118.644531 47.691406 -117.789062 C 46.679688 -116.09375 45.828125 -114.40625 44.804688 -112.871094 C 44.390625 -111.867188 43.964844 -111.023438 43.539062 -110.179688 C 41.242188 -106.113281 38.941406 -102.050781 36.644531 -97.984375 C 35.644531 -96.125 34.480469 -94.253906 33.320312 -92.382812 C 30.238281 -87.9375 26.980469 -83.640625 24.246094 -78.890625 C 24.117188 -78.394531 23.820312 -78.050781 23.519531 -77.703125 Z M 23.519531 -77.703125 "/></g></g></g><g fill="#ff5758" fill-opacity="1"><g transform="translate(417.165039, 500.844284)"><g><path d="M 12.742188 -53.644531 C 12.25 -49.949219 11.542969 -43.835938 10.835938 -37.722656 C 10.070312 -30.964844 9.320312 -24.363281 8.558594 -17.605469 C 7.980469 -12.945312 7.546875 -8.105469 6.957031 -3.28125 C 6.636719 -1.523438 7.492188 -0.144531 8.183594 1.214844 C 8.3125 1.554688 8.769531 1.917969 9.238281 2.121094 C 10.824219 2.589844 12.378906 3.378906 13.828125 3.507812 C 17.039062 3.957031 20.265625 4.242188 23.34375 4.355469 C 26.421875 4.464844 29.515625 4.417969 32.59375 4.527344 C 36.789062 4.902344 41.304688 5.304688 45.511719 5.515625 C 48.425781 5.613281 51.199219 5.535156 53.941406 5.777344 C 59.4375 6.105469 64.757812 6.578125 70.257812 6.90625 C 71.0625 6.976562 71.871094 7.050781 72.410156 6.449219 C 73.65625 5.257812 74.574219 4.039062 74.734375 2.265625 C 75.226562 -1.429688 74.910156 -5.195312 75.078125 -8.917969 C 75.195312 -10.210938 75.335938 -11.824219 73.972656 -12.917969 C 73.972656 -12.917969 73.988281 -13.082031 73.839844 -13.257812 C 73.164062 -14.78125 71.621094 -15.730469 69.980469 -15.550781 C 69.335938 -15.609375 68.675781 -15.503906 68.046875 -15.722656 C 66.109375 -15.894531 64.027344 -16.242188 62.09375 -16.414062 C 59.015625 -16.527344 55.921875 -16.476562 52.855469 -16.75 C 47.359375 -17.078125 41.875 -17.566406 36.554688 -18.039062 C 35.089844 -18.007812 35.101562 -18.167969 35.21875 -19.457031 C 35.519531 -22.84375 35.820312 -26.230469 36.109375 -29.457031 C 36.476562 -35.4375 36.996094 -41.246094 37.511719 -47.050781 C 37.699219 -49.148438 37.859375 -49.132812 39.957031 -48.945312 C 43.695312 -48.9375 47.417969 -48.769531 51.15625 -48.761719 C 54.558594 -48.621094 57.824219 -48.816406 61.242188 -48.839844 C 62.691406 -48.710938 64.304688 -48.566406 65.917969 -48.421875 C 67.222656 -48.46875 68.085938 -49.042969 68.214844 -50.492188 C 68.546875 -54.203125 68.863281 -57.75 69.015625 -61.3125 C 69.160156 -62.925781 69.140625 -64.550781 69.125 -66.179688 C 69.0625 -67.324219 69.0625 -67.324219 67.933594 -67.421875 C 66.804688 -67.523438 65.839844 -67.609375 64.710938 -67.710938 C 60.355469 -68.097656 55.855469 -68.660156 51.324219 -68.902344 C 47.777344 -69.21875 44.214844 -69.375 40.503906 -69.703125 C 39.375 -69.804688 39.214844 -69.816406 39.328125 -71.109375 C 39.890625 -75.609375 40.457031 -80.109375 40.871094 -84.789062 C 41.121094 -85.742188 41.121094 -85.742188 42.101562 -85.816406 C 45.855469 -85.96875 49.738281 -85.785156 53.460938 -85.617188 C 57.976562 -85.214844 62.332031 -84.828125 66.863281 -84.585938 C 70.101562 -84.460938 73.503906 -84.320312 76.742188 -84.195312 C 78.046875 -84.242188 79.351562 -84.289062 80.257812 -85.34375 C 80.988281 -86.253906 81.574219 -87.339844 81.511719 -88.484375 C 81.796875 -93.496094 82.082031 -98.511719 82.363281 -103.523438 C 82.449219 -106.28125 81.167969 -108.34375 78.28125 -108.765625 C 77.796875 -108.808594 77.152344 -108.867188 76.8125 -108.734375 C 75.171875 -108.554688 73.734375 -108.84375 72.285156 -108.972656 C 69.21875 -109.246094 66.171875 -109.679688 63.265625 -109.9375 C 61.332031 -110.113281 59.574219 -110.429688 57.796875 -110.589844 C 51.023438 -111.191406 44.078125 -111.648438 37.304688 -112.25 C 36.820312 -112.292969 36.320312 -112.175781 35.675781 -112.234375 C 32.773438 -112.492188 29.707031 -112.765625 26.644531 -113.039062 C 25.191406 -113.167969 23.582031 -113.308594 22.128906 -113.441406 C 19.84375 -113.316406 18.613281 -112.289062 18.414062 -110.03125 C 18.195312 -109.402344 18.3125 -108.902344 18.269531 -108.417969 C 18.066406 -106.160156 18.027344 -103.890625 17.828125 -101.632812 C 16.15625 -86.5 14.644531 -71.355469 12.742188 -53.644531 Z M 12.742188 -53.644531 "/></g></g></g><g fill="#ff5758" fill-opacity="1"><g transform="translate(489.5108, 506.3075)"><g><path d="M 33.945312 -7.46875 C 34.179688 -8.410156 34.378906 -9.195312 34.617188 -10.136719 C 35.605469 -14.0625 36.597656 -17.988281 37.703125 -21.714844 C 37.980469 -22.8125 37.980469 -22.8125 38.921875 -22.578125 C 40.375 -22.375 41.671875 -22.21875 43.125 -22.019531 C 44.222656 -21.742188 45.363281 -21.621094 46.34375 -21.539062 C 47.128906 -21.339844 47.519531 -20.910156 47.519531 -20.242188 C 47.984375 -18.121094 48.609375 -15.957031 49.035156 -13.679688 C 49.851562 -8.964844 50.625 -4.09375 51.714844 0.855469 C 52.765625 5.292969 54.132812 9.8125 55.339844 14.292969 C 55.457031 14.488281 55.417969 14.644531 55.574219 14.683594 C 55.691406 15.550781 56.238281 16.023438 57.0625 16.0625 C 58.160156 16.339844 59.105469 16.578125 60.046875 16.816406 C 64.597656 17.964844 69.152344 19.113281 73.703125 20.261719 C 74.6875 20.339844 75.46875 20.539062 76.453125 20.621094 C 78.257812 20.742188 79.988281 19.175781 79.953125 17.328125 C 79.800781 15.953125 79.527344 14.382812 79.21875 12.96875 C 79.140625 11.945312 78.710938 11.003906 78.59375 10.140625 C 78.171875 6.527344 77.707031 3.070312 77.28125 -0.542969 C 76.816406 -2.664062 76.386719 -4.945312 76.078125 -7.027344 C 75.808594 -8.597656 75.691406 -10.128906 75.222656 -11.582031 C 74.445312 -15.117188 73.667969 -18.65625 72.734375 -22.230469 C 72.539062 -22.78125 72.65625 -23.25 73.363281 -23.40625 C 74.738281 -24.230469 76.195312 -24.695312 77.296875 -25.753906 C 79.8125 -27.792969 82.332031 -29.828125 84.140625 -32.375 C 87.882812 -37.277344 90.878906 -42.535156 92.265625 -48.695312 C 93.214844 -52.464844 94.011719 -56.269531 94.644531 -60.117188 C 95.917969 -67.144531 95.65625 -74.054688 94.375 -80.890625 C 94.101562 -81.796875 93.828125 -82.699219 93.398438 -83.640625 C 93.203125 -84.191406 92.851562 -84.78125 92.539062 -85.527344 C 90.859375 -89.460938 87.960938 -92.527344 84.3125 -94.617188 C 83.722656 -94.933594 83.136719 -95.25 82.546875 -95.5625 C 80.863281 -96.824219 79.015625 -97.457031 77.132812 -97.929688 C 76.191406 -98.167969 75.25 -98.40625 74.308594 -98.644531 C 69.167969 -100.109375 64.183594 -101.53125 59.199219 -102.957031 C 55.46875 -104.0625 51.703125 -105.015625 47.777344 -106.003906 C 44.792969 -106.757812 41.695312 -107.703125 38.515625 -108.339844 C 35.964844 -108.816406 34.785156 -108.113281 34.074219 -105.953125 C 33.003906 -102.382812 31.976562 -98.96875 30.949219 -95.554688 C 30.355469 -93.867188 30.078125 -92.101562 29.640625 -90.375 C 29.164062 -87.820312 29.003906 -85.191406 28.367188 -82.679688 C 27.652344 -78.519531 26.664062 -74.59375 25.832031 -70.628906 C 22.742188 -58.382812 19.652344 -46.140625 16.5625 -33.894531 C 13.789062 -22.238281 10.585938 -10.855469 7.222656 0.488281 C 6.550781 2.488281 7.140625 3.46875 9.179688 3.984375 C 10.121094 4.222656 11.0625 4.460938 11.964844 4.855469 C 14.320312 5.449219 16.441406 6.316406 18.753906 7.070312 C 21.109375 7.664062 23.308594 8.21875 25.664062 8.8125 C 27.859375 9.367188 29.082031 8.503906 29.792969 6.34375 C 31.097656 1.832031 32.597656 -2.796875 33.945312 -7.46875 Z M 48.234375 -62.808594 C 49.78125 -68.929688 51.128906 -74.933594 52.632812 -80.902344 C 52.910156 -82 52.910156 -82 54.007812 -81.722656 C 57.304688 -80.890625 60.640625 -80.214844 63.9375 -79.386719 C 66.453125 -78.75 68.765625 -77.332031 70.726562 -75.835938 C 71.707031 -75.089844 72.292969 -74.105469 72.445312 -72.730469 C 72.992188 -70.253906 73.066406 -67.898438 72.429688 -65.386719 C 71.558594 -61.265625 70.6875 -57.144531 69.027344 -53.222656 C 67.960938 -50.316406 66.191406 -47.925781 64.457031 -45.691406 C 63.828125 -45.183594 63.355469 -44.632812 63 -43.886719 C 61.820312 -42.515625 60.445312 -41.695312 58.753906 -41.621094 C 56.871094 -41.425781 54.867188 -41.429688 52.902344 -41.59375 C 50.273438 -41.753906 47.449219 -42.46875 44.777344 -43.140625 C 43.835938 -43.378906 43.679688 -43.417969 43.917969 -44.359375 C 43.996094 -45.339844 44.351562 -46.085938 44.589844 -47.027344 C 45.898438 -52.210938 47.085938 -57.585938 48.394531 -62.765625 C 48.394531 -62.765625 48.394531 -62.765625 48.234375 -62.808594 Z M 48.234375 -62.808594 "/></g></g></g><g fill="#ff5758" fill-opacity="1"><g transform="translate(566.878491, 525.480335)"><g><path d="M 70.738281 -63.800781 C 70.609375 -64.734375 70.566406 -65.457031 70.523438 -66.179688 C 70.332031 -68.199219 70.222656 -70.007812 70.113281 -71.8125 C 70.003906 -73.621094 69.8125 -75.640625 69.703125 -77.449219 C 69.722656 -78.320312 69.742188 -79.191406 69.550781 -79.976562 C 69.289062 -84.3125 68.96875 -88.5 69.066406 -92.859375 C 69.109375 -93.371094 69.003906 -93.945312 69.042969 -94.453125 C 68.851562 -95.242188 68.597656 -95.878906 67.765625 -96.410156 C 65.894531 -97.382812 64.171875 -98.296875 62.171875 -98.972656 C 59.875 -99.78125 57.855469 -100.820312 55.558594 -101.625 C 53.558594 -102.300781 51.558594 -102.980469 49.496094 -103.507812 C 48.09375 -103.933594 47.476562 -103.316406 47.414062 -101.933594 C 47.480469 -99.617188 47.613281 -97.449219 47.828125 -95.066406 C 48.386719 -90.601562 48.667969 -85.90625 48.863281 -81.417969 C 49.082031 -76.574219 49.214844 -71.9375 49.859375 -67.261719 C 50.652344 -61.289062 51.382812 -55.167969 52.175781 -49.195312 C 52.648438 -46.175781 51.863281 -43.515625 50.570312 -40.898438 C 47.664062 -34.921875 45.207031 -28.753906 42.8125 -22.734375 C 41.050781 -18.203125 39.355469 -13.824219 37.660156 -9.441406 C 34.925781 -3.039062 32.128906 3.511719 29.394531 9.914062 C 28.628906 11.699219 29.3125 13.402344 31.246094 14.226562 C 35.652344 16.285156 40.246094 17.894531 44.902344 19.355469 C 46.453125 19.84375 47.941406 19.246094 48.578125 17.757812 C 50.570312 13.503906 52.351562 9.335938 54.132812 5.164062 C 57.503906 -2.726562 60.875 -10.617188 64.246094 -18.507812 C 65.136719 -20.59375 65.964844 -22.527344 66.640625 -24.527344 C 67.277344 -26.015625 67.914062 -27.507812 68.550781 -28.996094 C 69.121094 -30.335938 69.695312 -31.675781 70.265625 -33.015625 C 70.964844 -34.652344 71.878906 -36.375 73.171875 -37.757812 C 74.59375 -39.441406 76.019531 -41.121094 77.738281 -42.675781 C 81.582031 -46.316406 85.511719 -49.742188 89.503906 -53.320312 C 91.925781 -55.277344 94.347656 -57.238281 96.832031 -59.34375 C 100.355469 -62.242188 103.882812 -65.136719 107.40625 -68.03125 C 108.449219 -68.820312 109.339844 -69.671875 110.445312 -70.609375 C 111.335938 -71.460938 112.292969 -72.460938 113.332031 -73.246094 C 113.949219 -73.863281 114.796875 -74.207031 114.671875 -75.140625 C 114.667969 -76.375 113.648438 -76.457031 112.753906 -76.839844 C 110.605469 -77.582031 108.605469 -78.257812 106.523438 -79.148438 C 103.035156 -80.464844 99.695312 -81.714844 96.207031 -83.027344 C 95.613281 -83.28125 95.101562 -83.324219 94.550781 -82.855469 C 93.785156 -82.300781 92.808594 -81.664062 92.191406 -81.046875 C 88.476562 -77.703125 84.820312 -74.511719 80.785156 -71.65625 C 77.515625 -69.355469 74.390625 -66.992188 71.441406 -64.203125 C 71.226562 -64.121094 71.015625 -64.035156 70.738281 -63.800781 Z M 70.738281 -63.800781 "/></g></g></g></svg>